# MagicaVoxel @ Ephtracy

# group
o 

# material
mtllib bed.mtl
usemtl palette

# normals
vn -1 0 0
vn 1 0 0
vn 0 0 1
vn 0 0 -1
vn 0 -1 0
vn 0 1 0

# texcoords
vt 0.845703 0.5
vt 0.958984 0.5

# verts
v 1.1 2 -1.2
v 1.1 2 -3.6
v 1.1 2.4 -1.2
v 1.1 2.4 -3.6
v 1.2 2 -0.2
v 1.2 2 -1.2
v 1.2 2.4 -0.2
v 1.2 2.4 -1.2
v 2.9 2 -0.2
v 2.9 2 -1.2
v 2.9 2.4 -0.2
v 2.9 2.4 -1.2
v 3 2 -1.2
v 3 2 -3.6
v 3 2.4 -1.2
v 3 2.4 -3.6
v 1.2 2 -0.2
v 1.2 2.4 -0.2
v 2.9 2 -0.2
v 2.9 2.4 -0.2
v 1.1 2 -1.2
v 1.1 2.4 -1.2
v 1.2 2 -1.2
v 1.2 2.4 -1.2
v 2.9 2 -1.2
v 2.9 2.4 -1.2
v 3 2 -1.2
v 3 2.4 -1.2
v 1.1 2 -3.6
v 1.1 2.4 -3.6
v 3 2 -3.6
v 3 2.4 -3.6
v 1.2 2 -0.2
v 2.9 2 -0.2
v 1.1 2 -1.2
v 1.2 2 -1.2
v 2.9 2 -1.2
v 3 2 -1.2
v 1.1 2 -3.6
v 3 2 -3.6
v 1.2 2.4 -0.2
v 2.9 2.4 -0.2
v 1.1 2.4 -1.2
v 1.2 2.4 -1.2
v 2.9 2.4 -1.2
v 3 2.4 -1.2
v 1.1 2.4 -3.6
v 3 2.4 -3.6

# faces
f 3/1/1 2/1/1 1/1/1
f 4/1/1 2/1/1 3/1/1
f 7/2/1 6/2/1 5/2/1
f 8/2/1 6/2/1 7/2/1
f 9/2/2 10/2/2 11/2/2
f 11/2/2 10/2/2 12/2/2
f 13/1/2 14/1/2 15/1/2
f 15/1/2 14/1/2 16/1/2
f 19/2/3 18/2/3 17/2/3
f 20/2/3 18/2/3 19/2/3
f 23/1/3 22/1/3 21/1/3
f 24/1/3 22/1/3 23/1/3
f 27/1/3 26/1/3 25/1/3
f 28/1/3 26/1/3 27/1/3
f 29/1/4 30/1/4 31/1/4
f 31/1/4 30/1/4 32/1/4
f 36/2/5 34/2/5 33/2/5
f 37/2/5 34/2/5 36/2/5
f 39/1/5 36/1/5 35/1/5
f 39/1/5 38/1/5 37/1/5
f 39/1/5 37/1/5 36/1/5
f 40/1/5 38/1/5 39/1/5
f 41/2/6 42/2/6 44/2/6
f 44/2/6 42/2/6 45/2/6
f 43/1/6 44/1/6 47/1/6
f 45/1/6 46/1/6 47/1/6
f 44/1/6 45/1/6 47/1/6
f 47/1/6 46/1/6 48/1/6
