# MagicaVoxel @ Ephtracy

# group
o 

# material
mtllib benchpress.mtl
usemtl palette

# normals
vn -1 0 0
vn 1 0 0
vn 0 0 1
vn 0 0 -1
vn 0 -1 0
vn 0 1 0

# texcoords
vt 0.970703 0.5
vt 0.986328 0.5
vt 0.990234 0.5
vt 0.994141 0.5

# verts
v 0.5 3.5 -2.5
v 0.5 3.5 -2.6
v 0.5 3.6 -2.5
v 0.5 3.6 -2.6
v 0.6 3.3 -2.5
v 0.6 3.3 -2.6
v 0.6 3.4 -2.4
v 0.6 3.4 -2.5
v 0.6 3.4 -2.6
v 0.6 3.4 -2.7
v 0.6 3.5 -2.3
v 0.6 3.5 -2.4
v 0.6 3.5 -2.5
v 0.6 3.5 -2.6
v 0.6 3.5 -2.7
v 0.6 3.5 -2.8
v 0.6 3.6 -2.3
v 0.6 3.6 -2.4
v 0.6 3.6 -2.5
v 0.6 3.6 -2.6
v 0.6 3.6 -2.7
v 0.6 3.6 -2.8
v 0.6 3.7 -2.4
v 0.6 3.7 -2.5
v 0.6 3.7 -2.6
v 0.6 3.7 -2.7
v 0.6 3.8 -2.5
v 0.6 3.8 -2.6
v 1.1 2 -0.6
v 1.1 2 -0.8
v 1.1 2 -2.5
v 1.1 2 -2.7
v 1.1 2.3 -0.8
v 1.1 2.3 -2.5
v 1.1 2.5 -0.6
v 1.1 2.5 -2.4
v 1.1 3.5 -2.5
v 1.1 3.5 -2.6
v 1.1 3.6 -2.4
v 1.1 3.6 -2.5
v 1.1 3.6 -2.6
v 1.1 3.6 -2.7
v 2.7 2 -0.6
v 2.7 2 -0.8
v 2.7 2 -2.5
v 2.7 2 -2.7
v 2.7 2.3 -0.6
v 2.7 2.3 -0.8
v 2.7 2.3 -2.5
v 2.7 2.3 -2.7
v 2.7 2.5 -2.4
v 2.7 2.5 -2.7
v 2.7 3.5 -2.5
v 2.7 3.5 -2.6
v 2.7 3.6 -2.4
v 2.7 3.6 -2.5
v 2.7 3.6 -2.6
v 2.7 3.6 -2.7
v 2.9 3.3 -2.5
v 2.9 3.3 -2.6
v 2.9 3.4 -2.4
v 2.9 3.4 -2.5
v 2.9 3.4 -2.6
v 2.9 3.4 -2.7
v 2.9 3.5 -2.3
v 2.9 3.5 -2.4
v 2.9 3.5 -2.5
v 2.9 3.5 -2.6
v 2.9 3.5 -2.7
v 2.9 3.5 -2.8
v 2.9 3.6 -2.3
v 2.9 3.6 -2.4
v 2.9 3.6 -2.5
v 2.9 3.6 -2.6
v 2.9 3.6 -2.7
v 2.9 3.6 -2.8
v 2.9 3.7 -2.4
v 2.9 3.7 -2.5
v 2.9 3.7 -2.6
v 2.9 3.7 -2.7
v 2.9 3.8 -2.5
v 2.9 3.8 -2.6
v 1 3.3 -2.5
v 1 3.3 -2.6
v 1 3.4 -2.4
v 1 3.4 -2.5
v 1 3.4 -2.6
v 1 3.4 -2.7
v 1 3.5 -2.3
v 1 3.5 -2.4
v 1 3.5 -2.5
v 1 3.5 -2.6
v 1 3.5 -2.7
v 1 3.5 -2.8
v 1 3.6 -2.3
v 1 3.6 -2.4
v 1 3.6 -2.5
v 1 3.6 -2.6
v 1 3.6 -2.7
v 1 3.6 -2.8
v 1 3.7 -2.4
v 1 3.7 -2.5
v 1 3.7 -2.6
v 1 3.7 -2.7
v 1 3.8 -2.5
v 1 3.8 -2.6
v 1.2 2 -0.6
v 1.2 2 -0.8
v 1.2 2 -2.5
v 1.2 2 -2.7
v 1.2 2.3 -0.6
v 1.2 2.3 -0.8
v 1.2 2.3 -2.5
v 1.2 2.3 -2.7
v 1.2 2.5 -2.4
v 1.2 2.5 -2.7
v 1.2 3.5 -2.5
v 1.2 3.5 -2.6
v 1.2 3.6 -2.4
v 1.2 3.6 -2.5
v 1.2 3.6 -2.6
v 1.2 3.6 -2.7
v 2.8 2 -0.6
v 2.8 2 -0.8
v 2.8 2 -2.5
v 2.8 2 -2.7
v 2.8 2.3 -0.8
v 2.8 2.3 -2.5
v 2.8 2.5 -0.6
v 2.8 2.5 -2.4
v 2.8 3.5 -2.5
v 2.8 3.5 -2.6
v 2.8 3.6 -2.4
v 2.8 3.6 -2.5
v 2.8 3.6 -2.6
v 2.8 3.6 -2.7
v 3.3 3.3 -2.5
v 3.3 3.3 -2.6
v 3.3 3.4 -2.4
v 3.3 3.4 -2.5
v 3.3 3.4 -2.6
v 3.3 3.4 -2.7
v 3.3 3.5 -2.3
v 3.3 3.5 -2.4
v 3.3 3.5 -2.5
v 3.3 3.5 -2.6
v 3.3 3.5 -2.7
v 3.3 3.5 -2.8
v 3.3 3.6 -2.3
v 3.3 3.6 -2.4
v 3.3 3.6 -2.5
v 3.3 3.6 -2.6
v 3.3 3.6 -2.7
v 3.3 3.6 -2.8
v 3.3 3.7 -2.4
v 3.3 3.7 -2.5
v 3.3 3.7 -2.6
v 3.3 3.7 -2.7
v 3.3 3.8 -2.5
v 3.3 3.8 -2.6
v 3.4 3.5 -2.5
v 3.4 3.5 -2.6
v 3.4 3.6 -2.5
v 3.4 3.6 -2.6
v 1.1 2 -0.6
v 1.1 2.5 -0.6
v 1.2 2 -0.6
v 1.2 2.3 -0.6
v 2.7 2 -0.6
v 2.7 2.3 -0.6
v 2.8 2 -0.6
v 2.8 2.5 -0.6
v 0.6 3.5 -2.3
v 0.6 3.6 -2.3
v 1 3.5 -2.3
v 1 3.6 -2.3
v 2.9 3.5 -2.3
v 2.9 3.6 -2.3
v 3.3 3.5 -2.3
v 3.3 3.6 -2.3
v 0.6 3.4 -2.4
v 0.6 3.5 -2.4
v 0.6 3.6 -2.4
v 0.6 3.7 -2.4
v 1 3.4 -2.4
v 1 3.5 -2.4
v 1 3.6 -2.4
v 1 3.7 -2.4
v 1.1 2.5 -2.4
v 1.1 3.6 -2.4
v 1.2 2.5 -2.4
v 1.2 3.6 -2.4
v 2.7 2.5 -2.4
v 2.7 3.6 -2.4
v 2.8 2.5 -2.4
v 2.8 3.6 -2.4
v 2.9 3.4 -2.4
v 2.9 3.5 -2.4
v 2.9 3.6 -2.4
v 2.9 3.7 -2.4
v 3.3 3.4 -2.4
v 3.3 3.5 -2.4
v 3.3 3.6 -2.4
v 3.3 3.7 -2.4
v 0.5 3.5 -2.5
v 0.5 3.6 -2.5
v 0.6 3.3 -2.5
v 0.6 3.4 -2.5
v 0.6 3.5 -2.5
v 0.6 3.6 -2.5
v 0.6 3.7 -2.5
v 0.6 3.8 -2.5
v 1 3.3 -2.5
v 1 3.4 -2.5
v 1 3.5 -2.5
v 1 3.6 -2.5
v 1 3.7 -2.5
v 1 3.8 -2.5
v 1.1 2 -2.5
v 1.1 2.3 -2.5
v 1.1 3.5 -2.5
v 1.1 3.6 -2.5
v 1.2 2 -2.5
v 1.2 2.3 -2.5
v 1.2 3.5 -2.5
v 1.2 3.6 -2.5
v 2.7 2 -2.5
v 2.7 2.3 -2.5
v 2.7 3.5 -2.5
v 2.7 3.6 -2.5
v 2.8 2 -2.5
v 2.8 2.3 -2.5
v 2.8 3.5 -2.5
v 2.8 3.6 -2.5
v 2.9 3.3 -2.5
v 2.9 3.4 -2.5
v 2.9 3.5 -2.5
v 2.9 3.6 -2.5
v 2.9 3.7 -2.5
v 2.9 3.8 -2.5
v 3.3 3.3 -2.5
v 3.3 3.4 -2.5
v 3.3 3.5 -2.5
v 3.3 3.6 -2.5
v 3.3 3.7 -2.5
v 3.3 3.8 -2.5
v 3.4 3.5 -2.5
v 3.4 3.6 -2.5
v 1.1 2 -0.8
v 1.1 2.3 -0.8
v 1.2 2 -0.8
v 1.2 2.3 -0.8
v 2.7 2 -0.8
v 2.7 2.3 -0.8
v 2.8 2 -0.8
v 2.8 2.3 -0.8
v 0.5 3.5 -2.6
v 0.5 3.6 -2.6
v 0.6 3.3 -2.6
v 0.6 3.4 -2.6
v 0.6 3.5 -2.6
v 0.6 3.6 -2.6
v 0.6 3.7 -2.6
v 0.6 3.8 -2.6
v 1 3.3 -2.6
v 1 3.4 -2.6
v 1 3.5 -2.6
v 1 3.6 -2.6
v 1 3.7 -2.6
v 1 3.8 -2.6
v 1.1 3.5 -2.6
v 1.1 3.6 -2.6
v 1.2 3.5 -2.6
v 1.2 3.6 -2.6
v 2.7 3.5 -2.6
v 2.7 3.6 -2.6
v 2.8 3.5 -2.6
v 2.8 3.6 -2.6
v 2.9 3.3 -2.6
v 2.9 3.4 -2.6
v 2.9 3.5 -2.6
v 2.9 3.6 -2.6
v 2.9 3.7 -2.6
v 2.9 3.8 -2.6
v 3.3 3.3 -2.6
v 3.3 3.4 -2.6
v 3.3 3.5 -2.6
v 3.3 3.6 -2.6
v 3.3 3.7 -2.6
v 3.3 3.8 -2.6
v 3.4 3.5 -2.6
v 3.4 3.6 -2.6
v 0.6 3.4 -2.7
v 0.6 3.5 -2.7
v 0.6 3.6 -2.7
v 0.6 3.7 -2.7
v 1 3.4 -2.7
v 1 3.5 -2.7
v 1 3.6 -2.7
v 1 3.7 -2.7
v 1.1 2 -2.7
v 1.1 3.6 -2.7
v 1.2 2 -2.7
v 1.2 2.3 -2.7
v 1.2 2.5 -2.7
v 1.2 3.6 -2.7
v 2.7 2 -2.7
v 2.7 2.3 -2.7
v 2.7 2.5 -2.7
v 2.7 3.6 -2.7
v 2.8 2 -2.7
v 2.8 3.6 -2.7
v 2.9 3.4 -2.7
v 2.9 3.5 -2.7
v 2.9 3.6 -2.7
v 2.9 3.7 -2.7
v 3.3 3.4 -2.7
v 3.3 3.5 -2.7
v 3.3 3.6 -2.7
v 3.3 3.7 -2.7
v 0.6 3.5 -2.8
v 0.6 3.6 -2.8
v 1 3.5 -2.8
v 1 3.6 -2.8
v 2.9 3.5 -2.8
v 2.9 3.6 -2.8
v 3.3 3.5 -2.8
v 3.3 3.6 -2.8
v 1.1 2 -0.6
v 1.2 2 -0.6
v 2.7 2 -0.6
v 2.8 2 -0.6
v 1.1 2 -0.8
v 1.2 2 -0.8
v 2.7 2 -0.8
v 2.8 2 -0.8
v 1.1 2 -2.5
v 1.2 2 -2.5
v 2.7 2 -2.5
v 2.8 2 -2.5
v 1.1 2 -2.7
v 1.2 2 -2.7
v 2.7 2 -2.7
v 2.8 2 -2.7
v 1.2 2.3 -0.6
v 2.7 2.3 -0.6
v 1.1 2.3 -0.8
v 1.2 2.3 -0.8
v 2.7 2.3 -0.8
v 2.8 2.3 -0.8
v 1.9 2.3 -1.5
v 2 2.3 -1.5
v 1.8 2.3 -1.9
v 1.9 2.3 -1.9
v 2 2.3 -1.9
v 2.1 2.3 -1.9
v 1.8 2.3 -2
v 1.9 2.3 -2
v 2 2.3 -2
v 2.1 2.3 -2
v 1.9 2.3 -2.1
v 2 2.3 -2.1
v 1.4 2.3 -2.2
v 1.5 2.3 -2.2
v 1.7 2.3 -2.2
v 2 2.3 -2.2
v 2.1 2.3 -2.2
v 2.6 2.3 -2.2
v 1.8 2.3 -2.3
v 1.9 2.3 -2.3
v 2.2 2.3 -2.3
v 2.3 2.3 -2.3
v 2.4 2.3 -2.3
v 2.5 2.3 -2.3
v 1.8 2.3 -2.4
v 1.9 2.3 -2.4
v 1.1 2.3 -2.5
v 1.2 2.3 -2.5
v 1.3 2.3 -2.5
v 1.4 2.3 -2.5
v 1.7 2.3 -2.5
v 2 2.3 -2.5
v 2.1 2.3 -2.5
v 2.2 2.3 -2.5
v 2.3 2.3 -2.5
v 2.4 2.3 -2.5
v 2.5 2.3 -2.5
v 2.6 2.3 -2.5
v 2.7 2.3 -2.5
v 2.8 2.3 -2.5
v 1.3 2.3 -2.6
v 1.5 2.3 -2.6
v 1.2 2.3 -2.7
v 2.7 2.3 -2.7
v 0.6 3.3 -2.5
v 1 3.3 -2.5
v 2.9 3.3 -2.5
v 3.3 3.3 -2.5
v 0.6 3.3 -2.6
v 1 3.3 -2.6
v 2.9 3.3 -2.6
v 3.3 3.3 -2.6
v 0.6 3.4 -2.4
v 1 3.4 -2.4
v 2.9 3.4 -2.4
v 3.3 3.4 -2.4
v 0.6 3.4 -2.5
v 1 3.4 -2.5
v 2.9 3.4 -2.5
v 3.3 3.4 -2.5
v 0.6 3.4 -2.6
v 1 3.4 -2.6
v 2.9 3.4 -2.6
v 3.3 3.4 -2.6
v 0.6 3.4 -2.7
v 1 3.4 -2.7
v 2.9 3.4 -2.7
v 3.3 3.4 -2.7
v 0.6 3.5 -2.3
v 1 3.5 -2.3
v 2.9 3.5 -2.3
v 3.3 3.5 -2.3
v 0.6 3.5 -2.4
v 1 3.5 -2.4
v 2.9 3.5 -2.4
v 3.3 3.5 -2.4
v 0.5 3.5 -2.5
v 0.6 3.5 -2.5
v 1 3.5 -2.5
v 1.1 3.5 -2.5
v 1.2 3.5 -2.5
v 2.7 3.5 -2.5
v 2.8 3.5 -2.5
v 2.9 3.5 -2.5
v 3.3 3.5 -2.5
v 3.4 3.5 -2.5
v 0.5 3.5 -2.6
v 0.6 3.5 -2.6
v 1 3.5 -2.6
v 1.1 3.5 -2.6
v 1.2 3.5 -2.6
v 2.7 3.5 -2.6
v 2.8 3.5 -2.6
v 2.9 3.5 -2.6
v 3.3 3.5 -2.6
v 3.4 3.5 -2.6
v 0.6 3.5 -2.7
v 1 3.5 -2.7
v 2.9 3.5 -2.7
v 3.3 3.5 -2.7
v 0.6 3.5 -2.8
v 1 3.5 -2.8
v 2.9 3.5 -2.8
v 3.3 3.5 -2.8
v 1.1 2.5 -0.6
v 2.8 2.5 -0.6
v 1.1 2.5 -2.4
v 1.2 2.5 -2.4
v 2.7 2.5 -2.4
v 2.8 2.5 -2.4
v 1.2 2.5 -2.7
v 2.7 2.5 -2.7
v 0.6 3.6 -2.3
v 1 3.6 -2.3
v 2.9 3.6 -2.3
v 3.3 3.6 -2.3
v 0.6 3.6 -2.4
v 1 3.6 -2.4
v 1.1 3.6 -2.4
v 1.2 3.6 -2.4
v 2.7 3.6 -2.4
v 2.8 3.6 -2.4
v 2.9 3.6 -2.4
v 3.3 3.6 -2.4
v 0.5 3.6 -2.5
v 0.6 3.6 -2.5
v 1 3.6 -2.5
v 1.1 3.6 -2.5
v 1.2 3.6 -2.5
v 2.7 3.6 -2.5
v 2.8 3.6 -2.5
v 2.9 3.6 -2.5
v 3.3 3.6 -2.5
v 3.4 3.6 -2.5
v 0.5 3.6 -2.6
v 0.6 3.6 -2.6
v 1 3.6 -2.6
v 1.1 3.6 -2.6
v 1.2 3.6 -2.6
v 2.7 3.6 -2.6
v 2.8 3.6 -2.6
v 2.9 3.6 -2.6
v 3.3 3.6 -2.6
v 3.4 3.6 -2.6
v 0.6 3.6 -2.7
v 1 3.6 -2.7
v 1.1 3.6 -2.7
v 1.2 3.6 -2.7
v 2.7 3.6 -2.7
v 2.8 3.6 -2.7
v 2.9 3.6 -2.7
v 3.3 3.6 -2.7
v 0.6 3.6 -2.8
v 1 3.6 -2.8
v 2.9 3.6 -2.8
v 3.3 3.6 -2.8
v 0.6 3.7 -2.4
v 1 3.7 -2.4
v 2.9 3.7 -2.4
v 3.3 3.7 -2.4
v 0.6 3.7 -2.5
v 1 3.7 -2.5
v 2.9 3.7 -2.5
v 3.3 3.7 -2.5
v 0.6 3.7 -2.6
v 1 3.7 -2.6
v 2.9 3.7 -2.6
v 3.3 3.7 -2.6
v 0.6 3.7 -2.7
v 1 3.7 -2.7
v 2.9 3.7 -2.7
v 3.3 3.7 -2.7
v 0.6 3.8 -2.5
v 1 3.8 -2.5
v 2.9 3.8 -2.5
v 3.3 3.8 -2.5
v 0.6 3.8 -2.6
v 1 3.8 -2.6
v 2.9 3.8 -2.6
v 3.3 3.8 -2.6

# faces
f 3/1/1 2/1/1 1/1/1
f 4/1/1 2/1/1 3/1/1
f 8/4/1 6/4/1 5/4/1
f 9/4/1 6/4/1 8/4/1
f 12/4/1 8/4/1 7/4/1
f 12/4/1 10/4/1 9/4/1
f 12/4/1 9/4/1 8/4/1
f 13/4/1 10/4/1 12/4/1
f 14/4/1 10/4/1 13/4/1
f 15/4/1 10/4/1 14/4/1
f 17/4/1 12/4/1 11/4/1
f 17/4/1 13/4/1 12/4/1
f 18/4/1 13/4/1 17/4/1
f 19/4/1 13/4/1 18/4/1
f 20/4/1 16/4/1 15/4/1
f 20/4/1 15/4/1 14/4/1
f 21/4/1 16/4/1 20/4/1
f 22/4/1 16/4/1 21/4/1
f 23/4/1 19/4/1 18/4/1
f 23/4/1 21/4/1 20/4/1
f 23/4/1 20/4/1 19/4/1
f 24/4/1 21/4/1 23/4/1
f 25/4/1 21/4/1 24/4/1
f 26/4/1 21/4/1 25/4/1
f 27/4/1 25/4/1 24/4/1
f 28/4/1 25/4/1 27/4/1
f 33/2/1 30/2/1 29/2/1
f 34/2/1 32/2/1 31/2/1
f 35/2/1 33/2/1 29/2/1
f 35/2/1 34/2/1 33/2/1
f 36/2/1 34/2/1 35/2/1
f 37/2/1 32/2/1 34/2/1
f 37/2/1 34/2/1 36/2/1
f 38/2/1 32/2/1 37/2/1
f 39/2/1 37/2/1 36/2/1
f 40/2/1 37/2/1 39/2/1
f 41/2/1 32/2/1 38/2/1
f 42/2/1 32/2/1 41/2/1
f 47/2/1 44/2/1 43/2/1
f 48/2/1 44/2/1 47/2/1
f 49/2/1 46/2/1 45/2/1
f 50/2/1 46/2/1 49/2/1
f 53/2/1 52/2/1 51/2/1
f 54/2/1 52/2/1 53/2/1
f 55/2/1 53/2/1 51/2/1
f 56/2/1 53/2/1 55/2/1
f 57/2/1 52/2/1 54/2/1
f 58/2/1 52/2/1 57/2/1
f 62/4/1 60/4/1 59/4/1
f 63/4/1 60/4/1 62/4/1
f 66/4/1 62/4/1 61/4/1
f 66/4/1 64/4/1 63/4/1
f 66/4/1 63/4/1 62/4/1
f 67/4/1 64/4/1 66/4/1
f 68/4/1 64/4/1 67/4/1
f 69/4/1 64/4/1 68/4/1
f 71/4/1 66/4/1 65/4/1
f 71/4/1 67/4/1 66/4/1
f 72/4/1 67/4/1 71/4/1
f 73/4/1 67/4/1 72/4/1
f 74/4/1 70/4/1 69/4/1
f 74/4/1 69/4/1 68/4/1
f 75/4/1 70/4/1 74/4/1
f 76/4/1 70/4/1 75/4/1
f 77/4/1 73/4/1 72/4/1
f 77/4/1 75/4/1 74/4/1
f 77/4/1 74/4/1 73/4/1
f 78/4/1 75/4/1 77/4/1
f 79/4/1 75/4/1 78/4/1
f 80/4/1 75/4/1 79/4/1
f 81/4/1 79/4/1 78/4/1
f 82/4/1 79/4/1 81/4/1
f 83/4/2 84/4/2 86/4/2
f 86/4/2 84/4/2 87/4/2
f 85/4/2 86/4/2 90/4/2
f 87/4/2 88/4/2 90/4/2
f 86/4/2 87/4/2 90/4/2
f 90/4/2 88/4/2 91/4/2
f 91/4/2 88/4/2 92/4/2
f 92/4/2 88/4/2 93/4/2
f 89/4/2 90/4/2 95/4/2
f 90/4/2 91/4/2 95/4/2
f 95/4/2 91/4/2 96/4/2
f 96/4/2 91/4/2 97/4/2
f 93/4/2 94/4/2 98/4/2
f 92/4/2 93/4/2 98/4/2
f 98/4/2 94/4/2 99/4/2
f 99/4/2 94/4/2 100/4/2
f 96/4/2 97/4/2 101/4/2
f 98/4/2 99/4/2 101/4/2
f 97/4/2 98/4/2 101/4/2
f 101/4/2 99/4/2 102/4/2
f 102/4/2 99/4/2 103/4/2
f 103/4/2 99/4/2 104/4/2
f 102/4/2 103/4/2 105/4/2
f 105/4/2 103/4/2 106/4/2
f 107/2/2 108/2/2 111/2/2
f 111/2/2 108/2/2 112/2/2
f 109/2/2 110/2/2 113/2/2
f 113/2/2 110/2/2 114/2/2
f 115/2/2 116/2/2 117/2/2
f 117/2/2 116/2/2 118/2/2
f 115/2/2 117/2/2 119/2/2
f 119/2/2 117/2/2 120/2/2
f 118/2/2 116/2/2 121/2/2
f 121/2/2 116/2/2 122/2/2
f 123/2/2 124/2/2 127/2/2
f 125/2/2 126/2/2 128/2/2
f 123/2/2 127/2/2 129/2/2
f 127/2/2 128/2/2 129/2/2
f 129/2/2 128/2/2 130/2/2
f 128/2/2 126/2/2 131/2/2
f 130/2/2 128/2/2 131/2/2
f 131/2/2 126/2/2 132/2/2
f 130/2/2 131/2/2 133/2/2
f 133/2/2 131/2/2 134/2/2
f 132/2/2 126/2/2 135/2/2
f 135/2/2 126/2/2 136/2/2
f 137/4/2 138/4/2 140/4/2
f 140/4/2 138/4/2 141/4/2
f 139/4/2 140/4/2 144/4/2
f 141/4/2 142/4/2 144/4/2
f 140/4/2 141/4/2 144/4/2
f 144/4/2 142/4/2 145/4/2
f 145/4/2 142/4/2 146/4/2
f 146/4/2 142/4/2 147/4/2
f 143/4/2 144/4/2 149/4/2
f 144/4/2 145/4/2 149/4/2
f 149/4/2 145/4/2 150/4/2
f 150/4/2 145/4/2 151/4/2
f 147/4/2 148/4/2 152/4/2
f 146/4/2 147/4/2 152/4/2
f 152/4/2 148/4/2 153/4/2
f 153/4/2 148/4/2 154/4/2
f 150/4/2 151/4/2 155/4/2
f 152/4/2 153/4/2 155/4/2
f 151/4/2 152/4/2 155/4/2
f 155/4/2 153/4/2 156/4/2
f 156/4/2 153/4/2 157/4/2
f 157/4/2 153/4/2 158/4/2
f 156/4/2 157/4/2 159/4/2
f 159/4/2 157/4/2 160/4/2
f 161/1/2 162/1/2 163/1/2
f 163/1/2 162/1/2 164/1/2
f 167/2/3 166/2/3 165/2/3
f 168/2/3 166/2/3 167/2/3
f 170/2/3 166/2/3 168/2/3
f 171/2/3 170/2/3 169/2/3
f 172/2/3 166/2/3 170/2/3
f 172/2/3 170/2/3 171/2/3
f 175/4/3 174/4/3 173/4/3
f 176/4/3 174/4/3 175/4/3
f 179/4/3 178/4/3 177/4/3
f 180/4/3 178/4/3 179/4/3
f 185/4/3 182/4/3 181/4/3
f 186/4/3 182/4/3 185/4/3
f 187/4/3 184/4/3 183/4/3
f 188/4/3 184/4/3 187/4/3
f 191/2/3 190/2/3 189/2/3
f 192/2/3 190/2/3 191/2/3
f 195/2/3 194/2/3 193/2/3
f 196/2/3 194/2/3 195/2/3
f 201/4/3 198/4/3 197/4/3
f 202/4/3 198/4/3 201/4/3
f 203/4/3 200/4/3 199/4/3
f 204/4/3 200/4/3 203/4/3
f 209/1/3 206/1/3 205/1/3
f 210/1/3 206/1/3 209/1/3
f 213/4/3 208/4/3 207/4/3
f 214/4/3 208/4/3 213/4/3
f 217/4/3 212/4/3 211/4/3
f 218/4/3 212/4/3 217/4/3
f 221/1/3 216/1/3 215/1/3
f 222/1/3 216/1/3 221/1/3
f 223/2/3 220/2/3 219/2/3
f 224/2/3 220/2/3 223/2/3
f 229/1/3 226/1/3 225/1/3
f 230/1/3 226/1/3 229/1/3
f 231/2/3 228/2/3 227/2/3
f 232/2/3 228/2/3 231/2/3
f 237/1/3 234/1/3 233/1/3
f 238/1/3 234/1/3 237/1/3
f 241/4/3 236/4/3 235/4/3
f 242/4/3 236/4/3 241/4/3
f 245/4/3 240/4/3 239/4/3
f 246/4/3 240/4/3 245/4/3
f 247/1/3 244/1/3 243/1/3
f 248/1/3 244/1/3 247/1/3
f 249/2/4 250/2/4 251/2/4
f 251/2/4 250/2/4 252/2/4
f 253/2/4 254/2/4 255/2/4
f 255/2/4 254/2/4 256/2/4
f 257/1/4 258/1/4 261/1/4
f 261/1/4 258/1/4 262/1/4
f 259/4/4 260/4/4 265/4/4
f 265/4/4 260/4/4 266/4/4
f 263/4/4 264/4/4 269/4/4
f 269/4/4 264/4/4 270/4/4
f 267/1/4 268/1/4 271/1/4
f 271/1/4 268/1/4 272/1/4
f 273/1/4 274/1/4 275/1/4
f 275/1/4 274/1/4 276/1/4
f 277/1/4 278/1/4 281/1/4
f 281/1/4 278/1/4 282/1/4
f 279/4/4 280/4/4 285/4/4
f 285/4/4 280/4/4 286/4/4
f 283/4/4 284/4/4 289/4/4
f 289/4/4 284/4/4 290/4/4
f 287/1/4 288/1/4 291/1/4
f 291/1/4 288/1/4 292/1/4
f 293/4/4 294/4/4 297/4/4
f 297/4/4 294/4/4 298/4/4
f 295/4/4 296/4/4 299/4/4
f 299/4/4 296/4/4 300/4/4
f 301/2/4 302/2/4 303/2/4
f 303/2/4 302/2/4 304/2/4
f 304/2/4 302/2/4 305/2/4
f 305/2/4 302/2/4 306/2/4
f 304/2/4 305/2/4 308/2/4
f 308/2/4 305/2/4 309/2/4
f 307/2/4 308/2/4 311/2/4
f 309/2/4 310/2/4 311/2/4
f 308/2/4 309/2/4 311/2/4
f 311/2/4 310/2/4 312/2/4
f 313/4/4 314/4/4 317/4/4
f 317/4/4 314/4/4 318/4/4
f 315/4/4 316/4/4 319/4/4
f 319/4/4 316/4/4 320/4/4
f 321/4/4 322/4/4 323/4/4
f 323/4/4 322/4/4 324/4/4
f 325/4/4 326/4/4 327/4/4
f 327/4/4 326/4/4 328/4/4
f 333/2/5 330/2/5 329/2/5
f 334/2/5 330/2/5 333/2/5
f 335/2/5 332/2/5 331/2/5
f 336/2/5 332/2/5 335/2/5
f 341/2/5 338/2/5 337/2/5
f 342/2/5 338/2/5 341/2/5
f 343/2/5 340/2/5 339/2/5
f 344/2/5 340/2/5 343/2/5
f 348/2/5 346/2/5 345/2/5
f 349/2/5 346/2/5 348/2/5
f 351/2/5 348/2/5 347/2/5
f 351/2/5 350/2/5 349/2/5
f 351/2/5 349/2/5 348/2/5
f 352/2/5 350/2/5 351/2/5
f 353/2/5 351/2/5 347/2/5
f 354/3/5 352/3/5 351/3/5
f 354/2/5 351/2/5 353/2/5
f 355/2/5 350/2/5 352/2/5
f 355/3/5 352/3/5 354/3/5
f 356/2/5 350/2/5 355/2/5
f 357/3/5 354/3/5 353/3/5
f 357/2/5 353/2/5 347/2/5
f 357/3/5 356/3/5 355/3/5
f 357/3/5 355/3/5 354/3/5
f 358/3/5 356/3/5 357/3/5
f 359/3/5 356/3/5 358/3/5
f 360/2/5 350/2/5 356/2/5
f 360/3/5 356/3/5 359/3/5
f 361/3/5 359/3/5 358/3/5
f 361/2/5 358/2/5 357/2/5
f 362/2/5 360/2/5 359/2/5
f 362/3/5 359/3/5 361/3/5
f 363/2/5 357/2/5 347/2/5
f 363/2/5 361/2/5 357/2/5
f 363/2/5 362/2/5 361/2/5
f 364/2/5 362/2/5 363/2/5
f 365/2/5 362/2/5 364/2/5
f 366/2/5 360/2/5 362/2/5
f 366/2/5 362/2/5 365/2/5
f 367/2/5 350/2/5 360/2/5
f 367/2/5 360/2/5 366/2/5
f 368/2/5 350/2/5 367/2/5
f 369/3/5 366/3/5 365/3/5
f 370/3/5 366/3/5 369/3/5
f 371/3/5 368/3/5 367/3/5
f 372/3/5 368/3/5 371/3/5
f 373/3/5 368/3/5 372/3/5
f 374/3/5 368/3/5 373/3/5
f 375/3/5 369/3/5 365/3/5
f 375/2/5 370/2/5 369/2/5
f 376/3/5 366/3/5 370/3/5
f 376/2/5 370/2/5 375/2/5
f 377/2/5 363/2/5 347/2/5
f 378/2/5 363/2/5 377/2/5
f 379/2/5 363/2/5 378/2/5
f 380/3/5 364/3/5 363/3/5
f 380/2/5 363/2/5 379/2/5
f 381/2/5 365/2/5 364/2/5
f 381/3/5 375/3/5 365/3/5
f 381/3/5 376/3/5 375/3/5
f 382/3/5 366/3/5 376/3/5
f 382/3/5 376/3/5 381/3/5
f 382/2/5 367/2/5 366/2/5
f 383/3/5 371/3/5 367/3/5
f 383/2/5 367/2/5 382/2/5
f 384/2/5 372/2/5 371/2/5
f 384/3/5 371/3/5 383/3/5
f 385/3/5 373/3/5 372/3/5
f 385/2/5 372/2/5 384/2/5
f 386/2/5 374/2/5 373/2/5
f 386/3/5 373/3/5 385/3/5
f 387/3/5 368/3/5 374/3/5
f 387/2/5 374/2/5 386/2/5
f 388/2/5 350/2/5 368/2/5
f 388/3/5 368/3/5 387/3/5
f 389/2/5 350/2/5 388/2/5
f 390/2/5 350/2/5 389/2/5
f 391/2/5 379/2/5 378/2/5
f 391/3/5 380/3/5 379/3/5
f 392/2/5 387/2/5 386/2/5
f 392/3/5 380/3/5 391/3/5
f 392/3/5 364/3/5 380/3/5
f 392/2/5 388/2/5 387/2/5
f 392/2/5 384/2/5 383/2/5
f 392/2/5 383/2/5 382/2/5
f 392/2/5 382/2/5 381/2/5
f 392/2/5 385/2/5 384/2/5
f 392/2/5 386/2/5 385/2/5
f 392/2/5 389/2/5 388/2/5
f 392/2/5 381/2/5 364/2/5
f 393/2/5 391/2/5 378/2/5
f 393/2/5 392/2/5 391/2/5
f 394/2/5 389/2/5 392/2/5
f 394/2/5 392/2/5 393/2/5
f 399/4/5 396/4/5 395/4/5
f 400/4/5 396/4/5 399/4/5
f 401/4/5 398/4/5 397/4/5
f 402/4/5 398/4/5 401/4/5
f 407/4/5 404/4/5 403/4/5
f 408/4/5 404/4/5 407/4/5
f 409/4/5 406/4/5 405/4/5
f 410/4/5 406/4/5 409/4/5
f 415/4/5 412/4/5 411/4/5
f 416/4/5 412/4/5 415/4/5
f 417/4/5 414/4/5 413/4/5
f 418/4/5 414/4/5 417/4/5
f 423/4/5 420/4/5 419/4/5
f 424/4/5 420/4/5 423/4/5
f 425/4/5 422/4/5 421/4/5
f 426/4/5 422/4/5 425/4/5
f 437/1/5 428/1/5 427/1/5
f 438/1/5 428/1/5 437/1/5
f 439/1/5 430/1/5 429/1/5
f 440/1/5 430/1/5 439/1/5
f 441/1/5 432/1/5 431/1/5
f 442/1/5 432/1/5 441/1/5
f 443/1/5 434/1/5 433/1/5
f 444/1/5 434/1/5 443/1/5
f 445/1/5 436/1/5 435/1/5
f 446/1/5 436/1/5 445/1/5
f 451/4/5 448/4/5 447/4/5
f 452/4/5 448/4/5 451/4/5
f 453/4/5 450/4/5 449/4/5
f 454/4/5 450/4/5 453/4/5
f 455/2/6 456/2/6 457/2/6
f 457/2/6 456/2/6 458/2/6
f 458/2/6 456/2/6 459/2/6
f 459/2/6 456/2/6 460/2/6
f 458/2/6 459/2/6 461/2/6
f 461/2/6 459/2/6 462/2/6
f 463/4/6 464/4/6 467/4/6
f 467/4/6 464/4/6 468/4/6
f 465/4/6 466/4/6 473/4/6
f 473/4/6 466/4/6 474/4/6
f 469/2/6 470/2/6 478/2/6
f 478/2/6 470/2/6 479/2/6
f 471/2/6 472/2/6 480/2/6
f 480/2/6 472/2/6 481/2/6
f 475/1/6 476/1/6 485/1/6
f 485/1/6 476/1/6 486/1/6
f 478/1/6 479/1/6 487/1/6
f 481/1/6 482/1/6 487/1/6
f 477/1/6 478/1/6 487/1/6
f 480/1/6 481/1/6 487/1/6
f 479/1/6 480/1/6 487/1/6
f 487/1/6 482/1/6 488/1/6
f 488/1/6 482/1/6 489/1/6
f 489/1/6 482/1/6 490/1/6
f 490/1/6 482/1/6 491/1/6
f 491/1/6 482/1/6 492/1/6
f 483/1/6 484/1/6 493/1/6
f 493/1/6 484/1/6 494/1/6
f 488/2/6 489/2/6 497/2/6
f 497/2/6 489/2/6 498/2/6
f 490/2/6 491/2/6 499/2/6
f 499/2/6 491/2/6 500/2/6
f 495/4/6 496/4/6 503/4/6
f 503/4/6 496/4/6 504/4/6
f 501/4/6 502/4/6 505/4/6
f 505/4/6 502/4/6 506/4/6
f 507/4/6 508/4/6 511/4/6
f 511/4/6 508/4/6 512/4/6
f 509/4/6 510/4/6 513/4/6
f 513/4/6 510/4/6 514/4/6
f 515/4/6 516/4/6 519/4/6
f 519/4/6 516/4/6 520/4/6
f 517/4/6 518/4/6 521/4/6
f 521/4/6 518/4/6 522/4/6
f 523/4/6 524/4/6 527/4/6
f 527/4/6 524/4/6 528/4/6
f 525/4/6 526/4/6 529/4/6
f 529/4/6 526/4/6 530/4/6
