# MagicaVoxel @ Ephtracy

# group
o 

# material
mtllib COMPUTER.mtl
usemtl palette

# normals
vn -1 0 0
vn 1 0 0
vn 0 0 1
vn 0 0 -1
vn 0 -1 0
vn 0 1 0

# texcoords
vt 0.841797 0.5
vt 0.908203 0.5
vt 0.958984 0.5
vt 0.986328 0.5
vt 0.990234 0.5
vt 0.994141 0.5

# verts
v 0.7 2 -1.1
v 0.7 2 -2.4
v 0.7 2.1 -1.1
v 0.7 2.1 -2.4
v 0.7 2.4 -0.7
v 0.7 2.4 -2.8
v 0.7 3.5 -0.7
v 0.7 3.5 -2.8
v 0.8 2.1 -1.1
v 0.8 2.1 -2.4
v 0.8 2.3 -2.2
v 0.8 2.3 -2.3
v 0.8 2.3 -2.4
v 0.8 2.4 -1.1
v 0.8 2.4 -2.2
v 0.8 2.4 -2.3
v 0.8 2.4 -2.4
v 1.5 2 -1
v 1.5 2 -2.5
v 1.5 2 -3.1
v 1.5 2 -3.2
v 1.5 2 -3.4
v 1.5 2 -3.5
v 1.5 2.1 -1
v 1.5 2.1 -2.5
v 1.5 2.1 -3.1
v 1.5 2.1 -3.2
v 1.5 2.1 -3.4
v 1.5 2.1 -3.5
v 0.9 2.1 -1.1
v 0.9 2.1 -2.4
v 0.9 2.3 -2.2
v 0.9 2.3 -2.3
v 0.9 2.3 -2.4
v 0.9 2.4 -0.7
v 0.9 2.4 -1.1
v 0.9 2.4 -2.2
v 0.9 2.4 -2.3
v 0.9 2.4 -2.4
v 0.9 2.4 -2.8
v 0.9 2.5 -0.8
v 0.9 2.5 -2.7
v 0.9 3.4 -0.8
v 0.9 3.4 -2.7
v 0.9 3.5 -0.7
v 0.9 3.5 -2.8
v 1 2 -1.1
v 1 2 -2.4
v 1 2.1 -1.1
v 1 2.1 -2.4
v 2.1 2 -3.1
v 2.1 2 -3.5
v 2.1 2.1 -3.1
v 2.1 2.1 -3.5
v 2.3 2 -1
v 2.3 2 -2.5
v 2.3 2.1 -1
v 2.3 2.1 -2.5
v 0.7 2.4 -0.7
v 0.7 3.5 -0.7
v 0.9 2.4 -0.7
v 0.9 3.5 -0.7
v 1.5 2 -1
v 1.5 2.1 -1
v 1.6 2 -1
v 1.6 2.1 -1
v 2.3 2 -1
v 2.3 2.1 -1
v 0.7 2 -1.1
v 0.7 2.1 -1.1
v 0.8 2.1 -1.1
v 0.8 2.4 -1.1
v 0.9 2.1 -1.1
v 0.9 2.4 -1.1
v 1 2 -1.1
v 1 2.1 -1.1
v 1.5 2 -3.1
v 1.5 2.1 -3.1
v 2.1 2 -3.1
v 2.1 2.1 -3.1
v 0.7 2 -2.4
v 0.7 2.1 -2.4
v 0.8 2.1 -2.4
v 0.8 2.3 -2.4
v 0.8 2.4 -2.4
v 0.9 2.1 -2.4
v 0.9 2.3 -2.4
v 0.9 2.4 -2.4
v 1 2 -2.4
v 1 2.1 -2.4
v 1.5 2 -2.5
v 1.5 2.1 -2.5
v 1.6 2 -2.5
v 1.6 2.1 -2.5
v 2.3 2 -2.5
v 2.3 2.1 -2.5
v 0.7 2.4 -2.8
v 0.7 3.5 -2.8
v 0.9 2.4 -2.8
v 0.9 3.5 -2.8
v 1.5 2 -3.5
v 1.5 2.1 -3.5
v 2.1 2 -3.5
v 2.1 2.1 -3.5
v 1.5 2 -1
v 1.6 2 -1
v 2.3 2 -1
v 0.7 2 -1.1
v 1 2 -1.1
v 0.7 2 -2.4
v 1 2 -2.4
v 1.5 2 -2.5
v 1.6 2 -2.5
v 2.3 2 -2.5
v 1.5 2 -3.1
v 2.1 2 -3.1
v 1.5 2 -3.2
v 1.7 2 -3.2
v 1.5 2 -3.4
v 1.7 2 -3.4
v 1.5 2 -3.5
v 2.1 2 -3.5
v 0.7 2.4 -0.7
v 0.9 2.4 -0.7
v 0.8 2.4 -1.1
v 0.9 2.4 -1.1
v 0.8 2.4 -2.2
v 0.8 2.4 -2.3
v 0.8 2.4 -2.4
v 0.9 2.4 -2.4
v 0.7 2.4 -2.8
v 0.9 2.4 -2.8
v 1.5 2.1 -1
v 1.6 2.1 -1
v 2.3 2.1 -1
v 0.7 2.1 -1.1
v 0.8 2.1 -1.1
v 0.9 2.1 -1.1
v 1 2.1 -1.1
v 0.7 2.1 -2.4
v 0.8 2.1 -2.4
v 0.9 2.1 -2.4
v 1 2.1 -2.4
v 1.5 2.1 -2.5
v 1.6 2.1 -2.5
v 2.3 2.1 -2.5
v 1.5 2.1 -3.1
v 2.1 2.1 -3.1
v 1.5 2.1 -3.2
v 1.7 2.1 -3.2
v 1.5 2.1 -3.4
v 1.7 2.1 -3.4
v 1.5 2.1 -3.5
v 2.1 2.1 -3.5
v 0.7 3.5 -0.7
v 0.9 3.5 -0.7
v 0.7 3.5 -2.8
v 0.9 3.5 -2.8

# faces
f 3/6/1 2/6/1 1/6/1
f 4/6/1 2/6/1 3/6/1
f 7/6/1 6/6/1 5/6/1
f 8/6/1 6/6/1 7/6/1
f 11/6/1 10/6/1 9/6/1
f 12/6/1 10/6/1 11/6/1
f 13/6/1 10/6/1 12/6/1
f 14/6/1 11/6/1 9/6/1
f 15/2/1 12/2/1 11/2/1
f 15/6/1 11/6/1 14/6/1
f 16/1/1 13/1/1 12/1/1
f 16/2/1 12/2/1 15/2/1
f 17/1/1 13/1/1 16/1/1
f 24/5/1 19/5/1 18/5/1
f 25/5/1 19/5/1 24/5/1
f 26/6/1 21/6/1 20/6/1
f 27/4/1 22/4/1 21/4/1
f 27/6/1 21/6/1 26/6/1
f 28/6/1 23/6/1 22/6/1
f 28/4/1 22/4/1 27/4/1
f 29/6/1 23/6/1 28/6/1
f 30/6/2 31/6/2 32/6/2
f 32/6/2 31/6/2 33/6/2
f 33/6/2 31/6/2 34/6/2
f 30/6/2 32/6/2 36/6/2
f 32/2/2 33/2/2 37/2/2
f 36/6/2 32/6/2 37/6/2
f 33/1/2 34/1/2 38/1/2
f 37/2/2 33/2/2 38/2/2
f 38/1/2 34/1/2 39/1/2
f 38/6/2 39/6/2 41/6/2
f 39/6/2 40/6/2 41/6/2
f 37/6/2 38/6/2 41/6/2
f 35/6/2 36/6/2 41/6/2
f 36/6/2 37/6/2 41/6/2
f 41/6/2 40/6/2 42/6/2
f 35/6/2 41/6/2 43/6/2
f 41/3/2 42/3/2 43/3/2
f 42/6/2 40/6/2 44/6/2
f 43/3/2 42/3/2 44/3/2
f 35/6/2 43/6/2 45/6/2
f 43/6/2 44/6/2 45/6/2
f 44/6/2 40/6/2 46/6/2
f 45/6/2 44/6/2 46/6/2
f 47/6/2 48/6/2 49/6/2
f 49/6/2 48/6/2 50/6/2
f 51/6/2 52/6/2 53/6/2
f 53/6/2 52/6/2 54/6/2
f 55/6/2 56/6/2 57/6/2
f 57/6/2 56/6/2 58/6/2
f 61/6/3 60/6/3 59/6/3
f 62/6/3 60/6/3 61/6/3
f 65/5/3 64/5/3 63/5/3
f 66/5/3 64/5/3 65/5/3
f 67/6/3 66/6/3 65/6/3
f 68/6/3 66/6/3 67/6/3
f 71/6/3 70/6/3 69/6/3
f 73/6/3 71/6/3 69/6/3
f 73/6/3 72/6/3 71/6/3
f 74/6/3 72/6/3 73/6/3
f 75/6/3 73/6/3 69/6/3
f 76/6/3 73/6/3 75/6/3
f 79/6/3 78/6/3 77/6/3
f 80/6/3 78/6/3 79/6/3
f 81/6/4 82/6/4 83/6/4
f 81/6/4 83/6/4 86/6/4
f 83/6/4 84/6/4 86/6/4
f 84/1/4 85/1/4 87/1/4
f 86/6/4 84/6/4 87/6/4
f 87/1/4 85/1/4 88/1/4
f 81/6/4 86/6/4 89/6/4
f 89/6/4 86/6/4 90/6/4
f 91/5/4 92/5/4 93/5/4
f 93/5/4 92/5/4 94/5/4
f 93/6/4 94/6/4 95/6/4
f 95/6/4 94/6/4 96/6/4
f 97/6/4 98/6/4 99/6/4
f 99/6/4 98/6/4 100/6/4
f 101/6/4 102/6/4 103/6/4
f 103/6/4 102/6/4 104/6/4
f 110/6/5 109/6/5 108/6/5
f 111/6/5 109/6/5 110/6/5
f 112/5/5 106/5/5 105/5/5
f 113/6/5 107/6/5 106/6/5
f 113/5/5 106/5/5 112/5/5
f 114/6/5 107/6/5 113/6/5
f 117/6/5 116/6/5 115/6/5
f 118/6/5 116/6/5 117/6/5
f 119/4/5 118/4/5 117/4/5
f 120/6/5 116/6/5 118/6/5
f 120/4/5 118/4/5 119/4/5
f 121/6/5 120/6/5 119/6/5
f 122/6/5 116/6/5 120/6/5
f 122/6/5 120/6/5 121/6/5
f 125/6/5 124/6/5 123/6/5
f 126/6/5 124/6/5 125/6/5
f 127/6/5 125/6/5 123/6/5
f 128/6/5 127/6/5 123/6/5
f 129/6/5 128/6/5 123/6/5
f 131/6/5 129/6/5 123/6/5
f 131/6/5 130/6/5 129/6/5
f 132/6/5 130/6/5 131/6/5
f 136/6/6 137/6/6 140/6/6
f 140/6/6 137/6/6 141/6/6
f 138/6/6 139/6/6 142/6/6
f 142/6/6 139/6/6 143/6/6
f 133/5/6 134/5/6 144/5/6
f 134/6/6 135/6/6 145/6/6
f 144/5/6 134/5/6 145/5/6
f 145/6/6 135/6/6 146/6/6
f 147/6/6 148/6/6 149/6/6
f 149/6/6 148/6/6 150/6/6
f 149/4/6 150/4/6 151/4/6
f 150/6/6 148/6/6 152/6/6
f 151/4/6 150/4/6 152/4/6
f 151/6/6 152/6/6 153/6/6
f 152/6/6 148/6/6 154/6/6
f 153/6/6 152/6/6 154/6/6
f 155/6/6 156/6/6 157/6/6
f 157/6/6 156/6/6 158/6/6
