# MagicaVoxel @ Ephtracy

# group
o 

# material
mtllib LAMP.mtl
usemtl palette

# normals
vn -1 0 0
vn 1 0 0
vn 0 0 1
vn 0 0 -1
vn 0 -1 0
vn 0 1 0

# texcoords
vt 0.958984 0.5
vt 0.986328 0.5
vt 0.990234 0.5

# verts
v 1.2 2 -1.5
v 1.2 2 -2.8
v 1.2 2.1 -1.5
v 1.2 2.1 -1.9
v 1.2 2.1 -2.4
v 1.2 2.1 -2.8
v 1.2 3.2 -1.9
v 1.2 3.2 -2.4
v 1.2 3.3 -1.6
v 1.2 3.3 -2.7
v 1.2 4.1 -1.6
v 1.2 4.1 -2.7
v 1.4 3.2 -2.1
v 1.4 3.2 -2.2
v 1.4 3.3 -2.1
v 1.4 3.3 -2.2
v 2 3.2 -2.1
v 2 3.2 -2.2
v 2 3.3 -2.1
v 2 3.3 -2.2
v 2.2 2 -1.5
v 2.2 2 -2.8
v 2.2 2.1 -1.5
v 2.2 2.1 -1.9
v 2.2 2.1 -2.4
v 2.2 2.1 -2.8
v 2.2 3.2 -1.9
v 2.2 3.2 -2.4
v 2.2 3.3 -1.6
v 2.2 3.3 -2.7
v 2.2 4.1 -1.6
v 2.2 4.1 -2.7
v 1.2 2 -1.5
v 1.2 2.1 -1.5
v 2.2 2 -1.5
v 2.2 2.1 -1.5
v 1.2 3.3 -1.6
v 1.2 4.1 -1.6
v 2.2 3.3 -1.6
v 2.2 4.1 -1.6
v 1.2 2.1 -1.9
v 1.2 3.2 -1.9
v 2.2 2.1 -1.9
v 2.2 3.2 -1.9
v 1.4 3.2 -2.1
v 1.4 3.3 -2.1
v 2 3.2 -2.1
v 2 3.3 -2.1
v 1.4 3.2 -2.2
v 1.4 3.3 -2.2
v 2 3.2 -2.2
v 2 3.3 -2.2
v 1.2 2.1 -2.4
v 1.2 3.2 -2.4
v 2.2 2.1 -2.4
v 2.2 3.2 -2.4
v 1.2 3.3 -2.7
v 1.2 4.1 -2.7
v 2.2 3.3 -2.7
v 2.2 4.1 -2.7
v 1.2 2 -2.8
v 1.2 2.1 -2.8
v 2.2 2 -2.8
v 2.2 2.1 -2.8
v 1.2 2 -1.5
v 2.2 2 -1.5
v 1.2 2 -2.8
v 2.2 2 -2.8
v 1.2 3.3 -1.6
v 2.2 3.3 -1.6
v 1.4 3.3 -2.1
v 2 3.3 -2.1
v 1.4 3.3 -2.2
v 2 3.3 -2.2
v 1.2 3.3 -2.7
v 2.2 3.3 -2.7
v 1.2 2.1 -1.5
v 2.2 2.1 -1.5
v 1.2 2.1 -1.9
v 2.2 2.1 -1.9
v 1.2 2.1 -2.4
v 2.2 2.1 -2.4
v 1.2 2.1 -2.8
v 2.2 2.1 -2.8
v 1.2 3.2 -1.9
v 2.2 3.2 -1.9
v 1.4 3.2 -2.1
v 2 3.2 -2.1
v 1.4 3.2 -2.2
v 2 3.2 -2.2
v 1.2 3.2 -2.4
v 2.2 3.2 -2.4
v 1.2 4.1 -1.6
v 2.2 4.1 -1.6
v 1.2 4.1 -2.7
v 2.2 4.1 -2.7

# faces
f 3/3/1 2/3/1 1/3/1
f 4/3/1 2/3/1 3/3/1
f 5/3/1 2/3/1 4/3/1
f 6/3/1 2/3/1 5/3/1
f 7/2/1 5/2/1 4/2/1
f 8/2/1 5/2/1 7/2/1
f 11/1/1 10/1/1 9/1/1
f 12/1/1 10/1/1 11/1/1
f 15/2/1 14/2/1 13/2/1
f 16/2/1 14/2/1 15/2/1
f 17/2/2 18/2/2 19/2/2
f 19/2/2 18/2/2 20/2/2
f 21/3/2 22/3/2 23/3/2
f 23/3/2 22/3/2 24/3/2
f 24/3/2 22/3/2 25/3/2
f 25/3/2 22/3/2 26/3/2
f 24/2/2 25/2/2 27/2/2
f 27/2/2 25/2/2 28/2/2
f 29/1/2 30/1/2 31/1/2
f 31/1/2 30/1/2 32/1/2
f 35/3/3 34/3/3 33/3/3
f 36/3/3 34/3/3 35/3/3
f 39/1/3 38/1/3 37/1/3
f 40/1/3 38/1/3 39/1/3
f 43/2/3 42/2/3 41/2/3
f 44/2/3 42/2/3 43/2/3
f 47/2/3 46/2/3 45/2/3
f 48/2/3 46/2/3 47/2/3
f 49/2/4 50/2/4 51/2/4
f 51/2/4 50/2/4 52/2/4
f 53/2/4 54/2/4 55/2/4
f 55/2/4 54/2/4 56/2/4
f 57/1/4 58/1/4 59/1/4
f 59/1/4 58/1/4 60/1/4
f 61/3/4 62/3/4 63/3/4
f 63/3/4 62/3/4 64/3/4
f 67/3/5 66/3/5 65/3/5
f 68/3/5 66/3/5 67/3/5
f 71/1/5 70/1/5 69/1/5
f 72/1/5 70/1/5 71/1/5
f 73/1/5 71/1/5 69/1/5
f 74/1/5 70/1/5 72/1/5
f 75/1/5 73/1/5 69/1/5
f 75/1/5 74/1/5 73/1/5
f 76/1/5 70/1/5 74/1/5
f 76/1/5 74/1/5 75/1/5
f 77/3/6 78/3/6 79/3/6
f 79/3/6 78/3/6 80/3/6
f 81/3/6 82/3/6 83/3/6
f 83/3/6 82/3/6 84/3/6
f 85/2/6 86/2/6 87/2/6
f 87/2/6 86/2/6 88/2/6
f 85/2/6 87/2/6 89/2/6
f 88/2/6 86/2/6 90/2/6
f 85/2/6 89/2/6 91/2/6
f 89/2/6 90/2/6 91/2/6
f 90/2/6 86/2/6 92/2/6
f 91/2/6 90/2/6 92/2/6
f 93/1/6 94/1/6 95/1/6
f 95/1/6 94/1/6 96/1/6
