# MagicaVoxel @ Ephtracy

# group
o 

# material
mtllib ref.mtl
usemtl palette

# normals
vn -1 0 0
vn 1 0 0
vn 0 0 1
vn 0 0 -1
vn 0 -1 0
vn 0 1 0

# texcoords
vt 0.958984 0.5
vt 0.966797 0.5
vt 0.990234 0.5
vt 0.994141 0.5

# verts
v 1 2.6 -1.8
v 1 2.6 -2.3
v 1 2.7 -1.8
v 1 2.7 -2.3
v 1 3.3 -1.5
v 1 3.3 -1.6
v 1 3.9 -1.5
v 1 3.9 -1.6
v 1.2 2 -1.2
v 1.2 2 -2.9
v 1.2 2.1 -1.3
v 1.2 2.1 -2.8
v 1.2 2.6 -1.8
v 1.2 2.6 -1.9
v 1.2 2.6 -2.2
v 1.2 2.6 -2.3
v 1.2 2.7 -1.3
v 1.2 2.7 -1.8
v 1.2 2.7 -1.9
v 1.2 2.7 -2.2
v 1.2 2.7 -2.3
v 1.2 2.7 -2.8
v 1.2 2.8 -1.2
v 1.2 2.8 -2.9
v 1.2 3.1 -1.9
v 1.2 3.1 -2.5
v 1.2 3.3 -1.5
v 1.2 3.3 -1.6
v 1.2 3.4 -1.5
v 1.2 3.4 -1.6
v 1.2 3.8 -1.5
v 1.2 3.8 -1.6
v 1.2 3.9 -1.5
v 1.2 3.9 -1.6
v 1.2 4.1 -1.9
v 1.2 4.1 -2.5
v 1.2 4.4 -1.2
v 1.2 4.4 -1.3
v 1.2 4.4 -2.8
v 1.2 4.4 -2.9
v 1.2 4.5 -1.2
v 1.2 4.5 -1.3
v 1.2 4.5 -2.8
v 1.2 4.5 -2.9
v 2.8 2 -1.3
v 2.8 2 -2.8
v 2.8 2.2 -1.3
v 2.8 2.2 -2.8
v 1.1 2.6 -1.9
v 1.1 2.6 -2.2
v 1.1 2.7 -1.9
v 1.1 2.7 -2.2
v 1.1 3.4 -1.5
v 1.1 3.4 -1.6
v 1.1 3.8 -1.5
v 1.1 3.8 -1.6
v 1.3 2 -1.3
v 1.3 2 -2.8
v 1.3 2.1 -1.3
v 1.3 2.1 -2.8
v 1.3 2.2 -1.3
v 1.3 2.2 -2.8
v 2.9 2 -1.2
v 2.9 2 -2.9
v 2.9 4.5 -1.2
v 2.9 4.5 -2.9
v 1.2 2 -1.2
v 1.2 2.8 -1.2
v 1.2 4.4 -1.2
v 1.2 4.5 -1.2
v 1.3 2 -1.2
v 1.3 2.8 -1.2
v 1.3 4.4 -1.2
v 1.3 4.5 -1.2
v 2.9 2 -1.2
v 2.9 4.5 -1.2
v 1 3.3 -1.5
v 1 3.9 -1.5
v 1.1 3.4 -1.5
v 1.1 3.8 -1.5
v 1.2 3.3 -1.5
v 1.2 3.4 -1.5
v 1.2 3.8 -1.5
v 1.2 3.9 -1.5
v 1 2.6 -1.8
v 1 2.7 -1.8
v 1.2 2.6 -1.8
v 1.2 2.7 -1.8
v 1.1 2.6 -2.2
v 1.1 2.7 -2.2
v 1.2 2.6 -2.2
v 1.2 2.7 -2.2
v 1.3 2 -2.8
v 1.3 2.1 -2.8
v 1.3 2.2 -2.8
v 2.8 2 -2.8
v 2.8 2.2 -2.8
v 1.3 2 -1.3
v 1.3 2.1 -1.3
v 1.3 2.2 -1.3
v 2.8 2 -1.3
v 2.8 2.2 -1.3
v 1 3.3 -1.6
v 1 3.9 -1.6
v 1.1 3.4 -1.6
v 1.1 3.8 -1.6
v 1.2 3.3 -1.6
v 1.2 3.4 -1.6
v 1.2 3.8 -1.6
v 1.2 3.9 -1.6
v 1.1 2.6 -1.9
v 1.1 2.7 -1.9
v 1.2 2.6 -1.9
v 1.2 2.7 -1.9
v 1 2.6 -2.3
v 1 2.7 -2.3
v 1.2 2.6 -2.3
v 1.2 2.7 -2.3
v 1.2 2 -2.9
v 1.2 2.8 -2.9
v 1.2 4.4 -2.9
v 1.2 4.5 -2.9
v 1.3 2 -2.9
v 1.3 2.8 -2.9
v 1.3 4.4 -2.9
v 1.3 4.5 -2.9
v 2.9 2 -2.9
v 2.9 4.5 -2.9
v 1.2 2 -1.2
v 1.3 2 -1.2
v 2.9 2 -1.2
v 1.3 2 -1.3
v 2.8 2 -1.3
v 1.3 2 -2.8
v 2.8 2 -2.8
v 1.2 2 -2.9
v 1.3 2 -2.9
v 2.9 2 -2.9
v 1.3 2.2 -1.3
v 2.8 2.2 -1.3
v 1.3 2.2 -2.8
v 2.8 2.2 -2.8
v 1 2.6 -1.8
v 1.2 2.6 -1.8
v 1.1 2.6 -1.9
v 1.2 2.6 -1.9
v 1.1 2.6 -2.2
v 1.2 2.6 -2.2
v 1 2.6 -2.3
v 1.2 2.6 -2.3
v 1 3.3 -1.5
v 1.2 3.3 -1.5
v 1 3.3 -1.6
v 1.2 3.3 -1.6
v 1.1 3.8 -1.5
v 1.2 3.8 -1.5
v 1.1 3.8 -1.6
v 1.2 3.8 -1.6
v 1 2.7 -1.8
v 1.2 2.7 -1.8
v 1.1 2.7 -1.9
v 1.2 2.7 -1.9
v 1.1 2.7 -2.2
v 1.2 2.7 -2.2
v 1 2.7 -2.3
v 1.2 2.7 -2.3
v 1.1 3.4 -1.5
v 1.2 3.4 -1.5
v 1.1 3.4 -1.6
v 1.2 3.4 -1.6
v 1 3.9 -1.5
v 1.2 3.9 -1.5
v 1 3.9 -1.6
v 1.2 3.9 -1.6
v 1.2 4.5 -1.2
v 1.3 4.5 -1.2
v 2.9 4.5 -1.2
v 1.2 4.5 -1.3
v 1.3 4.5 -1.3
v 1.2 4.5 -2.8
v 1.3 4.5 -2.8
v 1.2 4.5 -2.9
v 1.3 4.5 -2.9
v 2.9 4.5 -2.9

# faces
f 3/3/1 2/3/1 1/3/1
f 4/3/1 2/3/1 3/3/1
f 7/4/1 6/4/1 5/4/1
f 8/4/1 6/4/1 7/4/1
f 11/2/1 10/2/1 9/2/1
f 12/2/1 10/2/1 11/2/1
f 13/1/1 12/1/1 11/1/1
f 14/1/1 12/1/1 13/1/1
f 15/1/1 12/1/1 14/1/1
f 16/1/1 12/1/1 15/1/1
f 17/2/1 11/2/1 9/2/1
f 17/1/1 13/1/1 11/1/1
f 18/1/1 13/1/1 17/1/1
f 19/1/1 15/1/1 14/1/1
f 20/1/1 15/1/1 19/1/1
f 21/1/1 12/1/1 16/1/1
f 22/2/1 10/2/1 12/2/1
f 22/1/1 12/1/1 21/1/1
f 23/2/1 20/2/1 19/2/1
f 23/2/1 21/2/1 20/2/1
f 23/2/1 22/2/1 21/2/1
f 23/2/1 18/2/1 17/2/1
f 23/2/1 19/2/1 18/2/1
f 23/2/1 17/2/1 9/2/1
f 24/2/1 10/2/1 22/2/1
f 24/2/1 22/2/1 23/2/1
f 25/1/1 24/1/1 23/1/1
f 26/1/1 24/1/1 25/1/1
f 27/1/1 25/1/1 23/1/1
f 28/1/1 25/1/1 27/1/1
f 29/1/1 27/1/1 23/1/1
f 30/1/1 25/1/1 28/1/1
f 31/1/1 29/1/1 23/1/1
f 31/1/1 30/1/1 29/1/1
f 32/1/1 25/1/1 30/1/1
f 32/1/1 30/1/1 31/1/1
f 33/1/1 31/1/1 23/1/1
f 34/1/1 25/1/1 32/1/1
f 35/4/1 26/4/1 25/4/1
f 35/1/1 34/1/1 33/1/1
f 35/1/1 25/1/1 34/1/1
f 36/1/1 24/1/1 26/1/1
f 36/4/1 26/4/1 35/4/1
f 37/1/1 35/1/1 33/1/1
f 37/1/1 33/1/1 23/1/1
f 37/1/1 36/1/1 35/1/1
f 38/1/1 36/1/1 37/1/1
f 39/1/1 24/1/1 36/1/1
f 39/1/1 36/1/1 38/1/1
f 40/1/1 24/1/1 39/1/1
f 41/2/1 38/2/1 37/2/1
f 42/1/1 39/1/1 38/1/1
f 42/2/1 38/2/1 41/2/1
f 43/2/1 40/2/1 39/2/1
f 43/1/1 39/1/1 42/1/1
f 44/2/1 40/2/1 43/2/1
f 47/1/1 46/1/1 45/1/1
f 48/1/1 46/1/1 47/1/1
f 49/3/2 50/3/2 51/3/2
f 51/3/2 50/3/2 52/3/2
f 53/4/2 54/4/2 55/4/2
f 55/4/2 54/4/2 56/4/2
f 57/2/2 58/2/2 59/2/2
f 59/2/2 58/2/2 60/2/2
f 59/1/2 60/1/2 61/1/2
f 61/1/2 60/1/2 62/1/2
f 63/1/2 64/1/2 65/1/2
f 65/1/2 64/1/2 66/1/2
f 71/2/3 68/2/3 67/2/3
f 72/1/3 69/1/3 68/1/3
f 72/2/3 68/2/3 71/2/3
f 73/2/3 70/2/3 69/2/3
f 73/1/3 69/1/3 72/1/3
f 74/2/3 70/2/3 73/2/3
f 75/1/3 72/1/3 71/1/3
f 75/1/3 73/1/3 72/1/3
f 75/1/3 74/1/3 73/1/3
f 76/1/3 74/1/3 75/1/3
f 79/4/3 78/4/3 77/4/3
f 80/4/3 78/4/3 79/4/3
f 81/4/3 79/4/3 77/4/3
f 82/4/3 79/4/3 81/4/3
f 83/4/3 78/4/3 80/4/3
f 84/4/3 78/4/3 83/4/3
f 87/3/3 86/3/3 85/3/3
f 88/3/3 86/3/3 87/3/3
f 91/3/3 90/3/3 89/3/3
f 92/3/3 90/3/3 91/3/3
f 96/1/3 94/1/3 93/1/3
f 96/1/3 95/1/3 94/1/3
f 97/1/3 95/1/3 96/1/3
f 98/1/4 99/1/4 101/1/4
f 99/1/4 100/1/4 101/1/4
f 101/1/4 100/1/4 102/1/4
f 103/4/4 104/4/4 105/4/4
f 105/4/4 104/4/4 106/4/4
f 103/4/4 105/4/4 107/4/4
f 107/4/4 105/4/4 108/4/4
f 106/4/4 104/4/4 109/4/4
f 109/4/4 104/4/4 110/4/4
f 111/3/4 112/3/4 113/3/4
f 113/3/4 112/3/4 114/3/4
f 115/3/4 116/3/4 117/3/4
f 117/3/4 116/3/4 118/3/4
f 119/2/4 120/2/4 123/2/4
f 120/1/4 121/1/4 124/1/4
f 123/2/4 120/2/4 124/2/4
f 121/2/4 122/2/4 125/2/4
f 124/1/4 121/1/4 125/1/4
f 125/2/4 122/2/4 126/2/4
f 123/1/4 124/1/4 127/1/4
f 124/1/4 125/1/4 127/1/4
f 125/1/4 126/1/4 127/1/4
f 127/1/4 126/1/4 128/1/4
f 132/2/5 130/2/5 129/2/5
f 132/1/5 131/1/5 130/1/5
f 133/1/5 131/1/5 132/1/5
f 134/2/5 132/2/5 129/2/5
f 135/1/5 131/1/5 133/1/5
f 136/2/5 134/2/5 129/2/5
f 137/1/5 135/1/5 134/1/5
f 137/2/5 134/2/5 136/2/5
f 138/1/5 131/1/5 135/1/5
f 138/1/5 135/1/5 137/1/5
f 141/1/5 140/1/5 139/1/5
f 142/1/5 140/1/5 141/1/5
f 145/3/5 144/3/5 143/3/5
f 146/3/5 144/3/5 145/3/5
f 147/3/5 145/3/5 143/3/5
f 149/3/5 147/3/5 143/3/5
f 149/3/5 148/3/5 147/3/5
f 150/3/5 148/3/5 149/3/5
f 153/4/5 152/4/5 151/4/5
f 154/4/5 152/4/5 153/4/5
f 157/4/5 156/4/5 155/4/5
f 158/4/5 156/4/5 157/4/5
f 159/3/6 160/3/6 161/3/6
f 161/3/6 160/3/6 162/3/6
f 159/3/6 161/3/6 163/3/6
f 159/3/6 163/3/6 165/3/6
f 163/3/6 164/3/6 165/3/6
f 165/3/6 164/3/6 166/3/6
f 167/4/6 168/4/6 169/4/6
f 169/4/6 168/4/6 170/4/6
f 171/4/6 172/4/6 173/4/6
f 173/4/6 172/4/6 174/4/6
f 175/2/6 176/2/6 178/2/6
f 176/1/6 177/1/6 179/1/6
f 178/2/6 176/2/6 179/2/6
f 178/1/6 179/1/6 180/1/6
f 179/1/6 177/1/6 181/1/6
f 180/1/6 179/1/6 181/1/6
f 180/2/6 181/2/6 182/2/6
f 181/1/6 177/1/6 183/1/6
f 182/2/6 181/2/6 183/2/6
f 183/1/6 177/1/6 184/1/6
