# MagicaVoxel @ Ephtracy

# group
o 

# material
mtllib sodacalledbibble.mtl
usemtl palette

# normals
vn -1 0 0
vn 1 0 0
vn 0 0 1
vn 0 0 -1
vn 0 -1 0
vn 0 1 0

# texcoords
vt 0.201172 0.5
vt 0.263672 0.5
vt 0.763672 0.5
vt 0.845703 0.5
vt 0.884766 0.5
vt 0.919922 0.5
vt 0.966797 0.5
vt 0.994141 0.5

# verts
v 0.9 2 -2.6
v 0.9 2 -3.1
v 0.9 2.8 -2.6
v 0.9 2.8 -2.8
v 0.9 2.8 -3
v 0.9 2.8 -3.1
v 0.9 2.9 -2.6
v 0.9 2.9 -2.7
v 0.9 3.1 -2.6
v 0.9 3.1 -2.7
v 0.9 3.2 -2.6
v 0.9 3.2 -2.7
v 0.9 3.3 -2.6
v 0.9 3.3 -2.7
v 0.9 3.4 -2.6
v 0.9 3.4 -2.8
v 0.9 3.4 -3
v 0.9 3.4 -3.1
v 0.9 3.9 -2.6
v 0.9 3.9 -3.1
v 1 2 -2.4
v 1 2 -2.6
v 1 2 -3.1
v 1 2 -3.3
v 1 2.8 -2.4
v 1 2.8 -2.6
v 1 2.8 -3.1
v 1 2.9 -2.4
v 1 2.9 -2.6
v 1 2.9 -3.2
v 1 2.9 -3.3
v 1 3.1 -2.4
v 1 3.1 -2.6
v 1 3.2 -2.4
v 1 3.2 -2.6
v 1 3.3 -2.4
v 1 3.3 -2.6
v 1 3.3 -3.2
v 1 3.3 -3.3
v 1 3.4 -2.4
v 1 3.4 -2.6
v 1 3.4 -3.1
v 1 3.9 -2.4
v 1 3.9 -2.6
v 1 3.9 -3.1
v 1 3.9 -3.3
v 1.1 2 -2.2
v 1.1 2 -2.4
v 1.1 2 -3.3
v 1.1 2 -3.5
v 1.1 2.8 -2.3
v 1.1 2.8 -2.4
v 1.1 2.9 -2.3
v 1.1 2.9 -2.4
v 1.1 2.9 -3.3
v 1.1 2.9 -3.5
v 1.1 3 -3.3
v 1.1 3 -3.5
v 1.1 3.1 -2.2
v 1.1 3.1 -2.4
v 1.1 3.2 -2.3
v 1.1 3.2 -2.4
v 1.1 3.2 -3.3
v 1.1 3.2 -3.5
v 1.1 3.3 -2.3
v 1.1 3.3 -2.4
v 1.1 3.3 -3.3
v 1.1 3.3 -3.5
v 1.1 3.4 -2.2
v 1.1 3.4 -2.4
v 1.1 3.9 -2.2
v 1.1 3.9 -2.4
v 1.1 3.9 -3.3
v 1.1 3.9 -3.5
v 1.3 2 -2.1
v 1.3 2 -2.2
v 1.3 2 -3.5
v 1.3 2 -3.6
v 1.3 2.9 -3.5
v 1.3 3.5 -3.5
v 1.3 3.9 -2.1
v 1.3 3.9 -2.2
v 1.3 3.9 -3.5
v 1.3 3.9 -3.6
v 1.5 2 -2
v 1.5 2 -2.1
v 1.5 2 -3.6
v 1.5 2 -3.7
v 1.5 2.9 -3.6
v 1.5 2.9 -3.7
v 1.5 3 -3.6
v 1.5 3 -3.7
v 1.5 3.2 -3.6
v 1.5 3.2 -3.7
v 1.5 3.3 -3.6
v 1.5 3.3 -3.7
v 1.5 3.9 -2
v 1.5 3.9 -2.1
v 1.5 3.9 -3.6
v 1.5 3.9 -3.7
v 1.7 2.1 -2.8
v 1.7 2.1 -2.9
v 1.7 2.2 -2.8
v 1.7 2.2 -2.9
v 2 2.1 -2.1
v 2 2.1 -2.2
v 2 2.1 -3.5
v 2 2.1 -3.6
v 2 2.2 -2.1
v 2 2.2 -2.2
v 2 2.2 -3.5
v 2 2.2 -3.6
v 2.2 2.1 -2.2
v 2.2 2.1 -2.3
v 2.2 2.1 -3.4
v 2.2 2.1 -3.5
v 2.2 2.2 -2.2
v 2.2 2.2 -2.3
v 2.2 2.2 -3.4
v 2.2 2.2 -3.5
v 2.3 2.1 -2.3
v 2.3 2.1 -2.4
v 2.3 2.1 -3.3
v 2.3 2.1 -3.4
v 2.3 2.2 -2.3
v 2.3 2.2 -2.4
v 2.3 2.2 -3.3
v 2.3 2.2 -3.4
v 2.4 2.1 -2.4
v 2.4 2.1 -2.6
v 2.4 2.1 -3.1
v 2.4 2.1 -3.3
v 2.4 2.2 -2.4
v 2.4 2.2 -2.6
v 2.4 2.2 -3.1
v 2.4 2.2 -3.3
v 2.5 2.1 -2.6
v 2.5 2.1 -3.1
v 2.5 2.2 -2.6
v 2.5 2.2 -3.1
v 1 2.1 -2.6
v 1 2.1 -3.1
v 1 2.2 -2.6
v 1 2.2 -3.1
v 1.1 2.1 -2.4
v 1.1 2.1 -2.6
v 1.1 2.1 -3.1
v 1.1 2.1 -3.3
v 1.1 2.2 -2.4
v 1.1 2.2 -2.6
v 1.1 2.2 -3.1
v 1.1 2.2 -3.3
v 1.2 2.1 -2.3
v 1.2 2.1 -2.4
v 1.2 2.1 -3.3
v 1.2 2.1 -3.4
v 1.2 2.2 -2.3
v 1.2 2.2 -2.4
v 1.2 2.2 -3.3
v 1.2 2.2 -3.4
v 1.3 2.1 -2.2
v 1.3 2.1 -2.3
v 1.3 2.1 -3.4
v 1.3 2.1 -3.5
v 1.3 2.2 -2.2
v 1.3 2.2 -2.3
v 1.3 2.2 -3.4
v 1.3 2.2 -3.5
v 1.5 2.1 -2.1
v 1.5 2.1 -2.2
v 1.5 2.1 -3.5
v 1.5 2.1 -3.6
v 1.5 2.2 -2.1
v 1.5 2.2 -2.2
v 1.5 2.2 -3.5
v 1.5 2.2 -3.6
v 1.8 2.1 -2.8
v 1.8 2.1 -2.9
v 1.8 2.2 -2.8
v 1.8 2.2 -2.9
v 2 2 -2
v 2 2 -2.1
v 2 2 -3.6
v 2 2 -3.7
v 2 2.9 -3.6
v 2 2.9 -3.7
v 2 3.4 -3.6
v 2 3.4 -3.7
v 2 3.5 -3.6
v 2 3.5 -3.7
v 2 3.6 -3.6
v 2 3.6 -3.7
v 2 3.9 -2
v 2 3.9 -2.1
v 2 3.9 -3.6
v 2 3.9 -3.7
v 2.2 2 -2.1
v 2.2 2 -2.2
v 2.2 2 -3.5
v 2.2 2 -3.6
v 2.2 2.9 -3.5
v 2.2 2.9 -3.6
v 2.2 3 -3.5
v 2.2 3.2 -3.5
v 2.2 3.3 -3.5
v 2.2 3.3 -3.6
v 2.2 3.9 -2.1
v 2.2 3.9 -2.2
v 2.2 3.9 -3.5
v 2.2 3.9 -3.6
v 2.4 2 -2.2
v 2.4 2 -2.4
v 2.4 2 -3.3
v 2.4 2 -3.5
v 2.4 2.9 -3.4
v 2.4 2.9 -3.5
v 2.4 3.6 -3.4
v 2.4 3.6 -3.5
v 2.4 3.9 -2.2
v 2.4 3.9 -2.4
v 2.4 3.9 -3.3
v 2.4 3.9 -3.5
v 2.5 2 -2.4
v 2.5 2 -2.6
v 2.5 2 -3.1
v 2.5 2 -3.3
v 2.5 3.9 -2.4
v 2.5 3.9 -2.6
v 2.5 3.9 -3.1
v 2.5 3.9 -3.3
v 2.6 2 -2.6
v 2.6 2 -3.1
v 2.6 3.9 -2.6
v 2.6 3.9 -3.1
v 1.5 2 -2
v 1.5 3.9 -2
v 2 2 -2
v 2 3.9 -2
v 1.3 2 -2.1
v 1.3 3.9 -2.1
v 1.5 2 -2.1
v 1.5 3.9 -2.1
v 2 2 -2.1
v 2 3.9 -2.1
v 2.2 2 -2.1
v 2.2 3.9 -2.1
v 1.1 2 -2.2
v 1.1 3.1 -2.2
v 1.1 3.4 -2.2
v 1.1 3.9 -2.2
v 1.2 3.1 -2.2
v 1.2 3.4 -2.2
v 1.3 2 -2.2
v 1.3 3.9 -2.2
v 2.2 2 -2.2
v 2.2 3.9 -2.2
v 2.4 2 -2.2
v 2.4 3.9 -2.2
v 1 2 -2.4
v 1 2.8 -2.4
v 1 2.9 -2.4
v 1 3.1 -2.4
v 1 3.2 -2.4
v 1 3.3 -2.4
v 1 3.4 -2.4
v 1 3.9 -2.4
v 1.1 2 -2.4
v 1.1 2.8 -2.4
v 1.1 2.9 -2.4
v 1.1 3.1 -2.4
v 1.1 3.2 -2.4
v 1.1 3.3 -2.4
v 1.1 3.4 -2.4
v 1.1 3.9 -2.4
v 2.4 2 -2.4
v 2.4 3.9 -2.4
v 2.5 2 -2.4
v 2.5 3.9 -2.4
v 0.9 2 -2.6
v 0.9 2.8 -2.6
v 0.9 2.9 -2.6
v 0.9 3.1 -2.6
v 0.9 3.2 -2.6
v 0.9 3.3 -2.6
v 0.9 3.4 -2.6
v 0.9 3.9 -2.6
v 1 2 -2.6
v 1 2.8 -2.6
v 1 2.9 -2.6
v 1 3.1 -2.6
v 1 3.2 -2.6
v 1 3.3 -2.6
v 1 3.4 -2.6
v 1 3.9 -2.6
v 2.5 2 -2.6
v 2.5 3.9 -2.6
v 2.6 2 -2.6
v 2.6 3.9 -2.6
v 1.7 2.1 -2.8
v 1.7 2.2 -2.8
v 1.8 2.1 -2.8
v 1.8 2.2 -2.8
v 1 2.1 -3.1
v 1 2.2 -3.1
v 1.1 2.1 -3.1
v 1.1 2.2 -3.1
v 2.4 2.1 -3.1
v 2.4 2.2 -3.1
v 2.5 2.1 -3.1
v 2.5 2.2 -3.1
v 1.1 2.1 -3.3
v 1.1 2.2 -3.3
v 1.2 2.1 -3.3
v 1.2 2.2 -3.3
v 2.3 2.1 -3.3
v 2.3 2.2 -3.3
v 2.4 2.1 -3.3
v 2.4 2.2 -3.3
v 1.2 2.1 -3.4
v 1.2 2.2 -3.4
v 1.3 2.1 -3.4
v 1.3 2.2 -3.4
v 2.2 2.1 -3.4
v 2.2 2.2 -3.4
v 2.3 2.1 -3.4
v 2.3 2.2 -3.4
v 1.3 2.1 -3.5
v 1.3 2.2 -3.5
v 1.5 2.1 -3.5
v 1.5 2.2 -3.5
v 2 2.1 -3.5
v 2 2.2 -3.5
v 2.2 2.1 -3.5
v 2.2 2.2 -3.5
v 1.5 2.1 -3.6
v 1.5 2.2 -3.6
v 2 2.1 -3.6
v 2 2.2 -3.6
v 1.5 2.1 -2.1
v 1.5 2.2 -2.1
v 2 2.1 -2.1
v 2 2.2 -2.1
v 1.3 2.1 -2.2
v 1.3 2.2 -2.2
v 1.5 2.1 -2.2
v 1.5 2.2 -2.2
v 2 2.1 -2.2
v 2 2.2 -2.2
v 2.2 2.1 -2.2
v 2.2 2.2 -2.2
v 1.2 2.1 -2.3
v 1.2 2.2 -2.3
v 1.3 2.1 -2.3
v 1.3 2.2 -2.3
v 2.2 2.1 -2.3
v 2.2 2.2 -2.3
v 2.3 2.1 -2.3
v 2.3 2.2 -2.3
v 1.1 2.1 -2.4
v 1.1 2.2 -2.4
v 1.2 2.1 -2.4
v 1.2 2.2 -2.4
v 2.3 2.1 -2.4
v 2.3 2.2 -2.4
v 2.4 2.1 -2.4
v 2.4 2.2 -2.4
v 1 2.1 -2.6
v 1 2.2 -2.6
v 1.1 2.1 -2.6
v 1.1 2.2 -2.6
v 2.4 2.1 -2.6
v 2.4 2.2 -2.6
v 2.5 2.1 -2.6
v 2.5 2.2 -2.6
v 1.7 2.1 -2.9
v 1.7 2.2 -2.9
v 1.8 2.1 -2.9
v 1.8 2.2 -2.9
v 0.9 2 -3.1
v 0.9 2.8 -3.1
v 0.9 3.4 -3.1
v 0.9 3.9 -3.1
v 1 2 -3.1
v 1 2.8 -3.1
v 1 3.4 -3.1
v 1 3.9 -3.1
v 2.5 2 -3.1
v 2.5 3.9 -3.1
v 2.6 2 -3.1
v 2.6 3.9 -3.1
v 1 2 -3.3
v 1 2.9 -3.3
v 1 3.3 -3.3
v 1 3.9 -3.3
v 1.1 2 -3.3
v 1.1 2.9 -3.3
v 1.1 3 -3.3
v 1.1 3.2 -3.3
v 1.1 3.3 -3.3
v 1.1 3.9 -3.3
v 2.4 2 -3.3
v 2.4 3.9 -3.3
v 2.5 2 -3.3
v 2.5 3.9 -3.3
v 1.1 2 -3.5
v 1.1 2.9 -3.5
v 1.1 3 -3.5
v 1.1 3.2 -3.5
v 1.1 3.3 -3.5
v 1.1 3.9 -3.5
v 1.2 3 -3.5
v 1.2 3.2 -3.5
v 1.2 3.3 -3.5
v 1.2 3.5 -3.5
v 1.3 2 -3.5
v 1.3 2.9 -3.5
v 1.3 3.5 -3.5
v 1.3 3.9 -3.5
v 2.2 2 -3.5
v 2.2 2.9 -3.5
v 2.2 3 -3.5
v 2.2 3.2 -3.5
v 2.2 3.3 -3.5
v 2.2 3.9 -3.5
v 2.3 3 -3.5
v 2.3 3.2 -3.5
v 2.3 3.3 -3.5
v 2.3 3.6 -3.5
v 2.4 2 -3.5
v 2.4 2.9 -3.5
v 2.4 3.6 -3.5
v 2.4 3.9 -3.5
v 1.3 2 -3.6
v 1.3 3.9 -3.6
v 1.4 2.9 -3.6
v 1.4 3.3 -3.6
v 1.5 2 -3.6
v 1.5 2.9 -3.6
v 1.5 3 -3.6
v 1.5 3.2 -3.6
v 1.5 3.3 -3.6
v 1.5 3.9 -3.6
v 2 2 -3.6
v 2 2.9 -3.6
v 2 3.4 -3.6
v 2 3.5 -3.6
v 2 3.6 -3.6
v 2 3.9 -3.6
v 2.1 2.9 -3.6
v 2.1 3.3 -3.6
v 2.2 2 -3.6
v 2.2 2.9 -3.6
v 2.2 3.3 -3.6
v 2.2 3.9 -3.6
v 1.5 2 -3.7
v 1.5 2.9 -3.7
v 1.5 3 -3.7
v 1.5 3.2 -3.7
v 1.5 3.3 -3.7
v 1.5 3.9 -3.7
v 1.6 3 -3.7
v 1.6 3.2 -3.7
v 1.6 3.3 -3.7
v 1.6 3.6 -3.7
v 1.7 2.9 -3.7
v 1.7 3.6 -3.7
v 1.9 2.9 -3.7
v 1.9 3.4 -3.7
v 1.9 3.5 -3.7
v 1.9 3.6 -3.7
v 2 2 -3.7
v 2 2.9 -3.7
v 2 3.4 -3.7
v 2 3.5 -3.7
v 2 3.6 -3.7
v 2 3.9 -3.7
v 1.5 2 -2
v 2 2 -2
v 1.3 2 -2.1
v 1.5 2 -2.1
v 2 2 -2.1
v 2.2 2 -2.1
v 1.1 2 -2.2
v 1.3 2 -2.2
v 2.2 2 -2.2
v 2.4 2 -2.2
v 1 2 -2.4
v 1.1 2 -2.4
v 2.4 2 -2.4
v 2.5 2 -2.4
v 0.9 2 -2.6
v 1 2 -2.6
v 2.5 2 -2.6
v 2.6 2 -2.6
v 0.9 2 -3.1
v 1 2 -3.1
v 2.5 2 -3.1
v 2.6 2 -3.1
v 1 2 -3.3
v 1.1 2 -3.3
v 2.4 2 -3.3
v 2.5 2 -3.3
v 1.1 2 -3.5
v 1.3 2 -3.5
v 2.2 2 -3.5
v 2.4 2 -3.5
v 1.3 2 -3.6
v 1.5 2 -3.6
v 2 2 -3.6
v 2.2 2 -3.6
v 1.5 2 -3.7
v 2 2 -3.7
v 1.5 2.2 -2.1
v 2 2.2 -2.1
v 1.3 2.2 -2.2
v 1.5 2.2 -2.2
v 2 2.2 -2.2
v 2.2 2.2 -2.2
v 1.2 2.2 -2.3
v 1.3 2.2 -2.3
v 2.2 2.2 -2.3
v 2.3 2.2 -2.3
v 1.1 2.2 -2.4
v 1.2 2.2 -2.4
v 2.3 2.2 -2.4
v 2.4 2.2 -2.4
v 1 2.2 -2.6
v 1.1 2.2 -2.6
v 2.4 2.2 -2.6
v 2.5 2.2 -2.6
v 1.7 2.2 -2.8
v 1.8 2.2 -2.8
v 1.7 2.2 -2.9
v 1.8 2.2 -2.9
v 1 2.2 -3.1
v 1.1 2.2 -3.1
v 2.4 2.2 -3.1
v 2.5 2.2 -3.1
v 1.1 2.2 -3.3
v 1.2 2.2 -3.3
v 2.3 2.2 -3.3
v 2.4 2.2 -3.3
v 1.2 2.2 -3.4
v 1.3 2.2 -3.4
v 2.2 2.2 -3.4
v 2.3 2.2 -3.4
v 1.3 2.2 -3.5
v 1.5 2.2 -3.5
v 2 2.2 -3.5
v 2.2 2.2 -3.5
v 1.5 2.2 -3.6
v 2 2.2 -3.6
v 1.5 2.1 -2.1
v 2 2.1 -2.1
v 1.3 2.1 -2.2
v 1.5 2.1 -2.2
v 2 2.1 -2.2
v 2.2 2.1 -2.2
v 1.2 2.1 -2.3
v 1.3 2.1 -2.3
v 2.2 2.1 -2.3
v 2.3 2.1 -2.3
v 1.1 2.1 -2.4
v 1.2 2.1 -2.4
v 2.3 2.1 -2.4
v 2.4 2.1 -2.4
v 1 2.1 -2.6
v 1.1 2.1 -2.6
v 2.4 2.1 -2.6
v 2.5 2.1 -2.6
v 1.7 2.1 -2.8
v 1.8 2.1 -2.8
v 1.7 2.1 -2.9
v 1.8 2.1 -2.9
v 1 2.1 -3.1
v 1.1 2.1 -3.1
v 2.4 2.1 -3.1
v 2.5 2.1 -3.1
v 1.1 2.1 -3.3
v 1.2 2.1 -3.3
v 2.3 2.1 -3.3
v 2.4 2.1 -3.3
v 1.2 2.1 -3.4
v 1.3 2.1 -3.4
v 2.2 2.1 -3.4
v 2.3 2.1 -3.4
v 1.3 2.1 -3.5
v 1.5 2.1 -3.5
v 2 2.1 -3.5
v 2.2 2.1 -3.5
v 1.5 2.1 -3.6
v 2 2.1 -3.6
v 1.5 3.9 -2
v 2 3.9 -2
v 1.3 3.9 -2.1
v 1.5 3.9 -2.1
v 2 3.9 -2.1
v 2.2 3.9 -2.1
v 1.1 3.9 -2.2
v 1.3 3.9 -2.2
v 2.2 3.9 -2.2
v 2.4 3.9 -2.2
v 1 3.9 -2.4
v 1.1 3.9 -2.4
v 2.4 3.9 -2.4
v 2.5 3.9 -2.4
v 0.9 3.9 -2.6
v 1 3.9 -2.6
v 2.5 3.9 -2.6
v 2.6 3.9 -2.6
v 0.9 3.9 -3.1
v 1 3.9 -3.1
v 1.6 3.9 -3.1
v 1.9 3.9 -3.1
v 2.5 3.9 -3.1
v 2.6 3.9 -3.1
v 1.5 3.9 -3.2
v 1.6 3.9 -3.2
v 1.7 3.9 -3.2
v 1.8 3.9 -3.2
v 1.9 3.9 -3.2
v 2 3.9 -3.2
v 1 3.9 -3.3
v 1.1 3.9 -3.3
v 1.7 3.9 -3.3
v 1.8 3.9 -3.3
v 2.4 3.9 -3.3
v 2.5 3.9 -3.3
v 1.1 3.9 -3.5
v 1.3 3.9 -3.5
v 1.5 3.9 -3.5
v 1.6 3.9 -3.5
v 1.9 3.9 -3.5
v 2 3.9 -3.5
v 2.2 3.9 -3.5
v 2.4 3.9 -3.5
v 1.3 3.9 -3.6
v 1.5 3.9 -3.6
v 1.6 3.9 -3.6
v 1.9 3.9 -3.6
v 2 3.9 -3.6
v 2.2 3.9 -3.6
v 1.5 3.9 -3.7
v 2 3.9 -3.7

# faces
f 3/7/1 2/7/1 1/7/1
f 4/7/1 2/7/1 3/7/1
f 5/7/1 2/7/1 4/7/1
f 6/7/1 2/7/1 5/7/1
f 7/3/1 4/3/1 3/3/1
f 8/3/1 4/3/1 7/3/1
f 9/7/1 8/7/1 7/7/1
f 10/3/1 4/3/1 8/3/1
f 10/7/1 8/7/1 9/7/1
f 11/3/1 10/3/1 9/3/1
f 12/3/1 4/3/1 10/3/1
f 12/3/1 10/3/1 11/3/1
f 13/7/1 12/7/1 11/7/1
f 14/3/1 4/3/1 12/3/1
f 14/7/1 12/7/1 13/7/1
f 15/3/1 14/3/1 13/3/1
f 16/7/1 5/7/1 4/7/1
f 16/3/1 14/3/1 15/3/1
f 16/3/1 4/3/1 14/3/1
f 17/2/1 6/2/1 5/2/1
f 17/7/1 5/7/1 16/7/1
f 18/2/1 6/2/1 17/2/1
f 19/7/1 16/7/1 15/7/1
f 19/7/1 17/7/1 16/7/1
f 19/7/1 18/7/1 17/7/1
f 20/7/1 18/7/1 19/7/1
f 25/7/1 22/7/1 21/7/1
f 26/7/1 22/7/1 25/7/1
f 27/7/1 24/7/1 23/7/1
f 28/3/1 26/3/1 25/3/1
f 29/3/1 26/3/1 28/3/1
f 30/7/1 24/7/1 27/7/1
f 31/7/1 24/7/1 30/7/1
f 32/7/1 29/7/1 28/7/1
f 33/7/1 29/7/1 32/7/1
f 34/3/1 33/3/1 32/3/1
f 35/3/1 33/3/1 34/3/1
f 36/7/1 35/7/1 34/7/1
f 37/7/1 35/7/1 36/7/1
f 38/7/1 30/7/1 27/7/1
f 38/4/1 31/4/1 30/4/1
f 39/4/1 31/4/1 38/4/1
f 40/3/1 37/3/1 36/3/1
f 41/3/1 37/3/1 40/3/1
f 42/7/1 38/7/1 27/7/1
f 42/7/1 39/7/1 38/7/1
f 43/7/1 41/7/1 40/7/1
f 44/7/1 41/7/1 43/7/1
f 45/7/1 39/7/1 42/7/1
f 46/7/1 39/7/1 45/7/1
f 51/7/1 48/7/1 47/7/1
f 52/7/1 48/7/1 51/7/1
f 53/7/1 51/7/1 47/7/1
f 53/3/1 52/3/1 51/3/1
f 54/3/1 52/3/1 53/3/1
f 55/7/1 50/7/1 49/7/1
f 56/7/1 50/7/1 55/7/1
f 57/4/1 56/4/1 55/4/1
f 58/4/1 56/4/1 57/4/1
f 59/7/1 54/7/1 53/7/1
f 59/7/1 53/7/1 47/7/1
f 60/7/1 54/7/1 59/7/1
f 61/3/1 60/3/1 59/3/1
f 62/3/1 60/3/1 61/3/1
f 63/7/1 58/7/1 57/7/1
f 64/7/1 58/7/1 63/7/1
f 65/7/1 62/7/1 61/7/1
f 65/3/1 61/3/1 59/3/1
f 66/7/1 62/7/1 65/7/1
f 67/4/1 64/4/1 63/4/1
f 68/4/1 64/4/1 67/4/1
f 69/3/1 66/3/1 65/3/1
f 69/3/1 65/3/1 59/3/1
f 70/3/1 66/3/1 69/3/1
f 71/7/1 70/7/1 69/7/1
f 72/7/1 70/7/1 71/7/1
f 73/7/1 68/7/1 67/7/1
f 74/7/1 68/7/1 73/7/1
f 79/7/1 78/7/1 77/7/1
f 80/7/1 78/7/1 79/7/1
f 81/7/1 76/7/1 75/7/1
f 82/7/1 76/7/1 81/7/1
f 83/7/1 78/7/1 80/7/1
f 84/7/1 78/7/1 83/7/1
f 89/7/1 88/7/1 87/7/1
f 90/7/1 88/7/1 89/7/1
f 91/1/1 90/1/1 89/1/1
f 92/1/1 90/1/1 91/1/1
f 93/7/1 92/7/1 91/7/1
f 94/7/1 92/7/1 93/7/1
f 95/1/1 94/1/1 93/1/1
f 96/1/1 94/1/1 95/1/1
f 97/7/1 86/7/1 85/7/1
f 98/7/1 86/7/1 97/7/1
f 99/7/1 96/7/1 95/7/1
f 100/7/1 96/7/1 99/7/1
f 103/7/1 102/7/1 101/7/1
f 104/7/1 102/7/1 103/7/1
f 109/7/1 106/7/1 105/7/1
f 110/7/1 106/7/1 109/7/1
f 111/7/1 108/7/1 107/7/1
f 112/7/1 108/7/1 111/7/1
f 117/7/1 114/7/1 113/7/1
f 118/7/1 114/7/1 117/7/1
f 119/7/1 116/7/1 115/7/1
f 120/7/1 116/7/1 119/7/1
f 125/7/1 122/7/1 121/7/1
f 126/7/1 122/7/1 125/7/1
f 127/7/1 124/7/1 123/7/1
f 128/7/1 124/7/1 127/7/1
f 133/7/1 130/7/1 129/7/1
f 134/7/1 130/7/1 133/7/1
f 135/7/1 132/7/1 131/7/1
f 136/7/1 132/7/1 135/7/1
f 139/7/1 138/7/1 137/7/1
f 140/7/1 138/7/1 139/7/1
f 141/7/2 142/7/2 143/7/2
f 143/7/2 142/7/2 144/7/2
f 145/7/2 146/7/2 149/7/2
f 149/7/2 146/7/2 150/7/2
f 147/7/2 148/7/2 151/7/2
f 151/7/2 148/7/2 152/7/2
f 153/7/2 154/7/2 157/7/2
f 157/7/2 154/7/2 158/7/2
f 155/7/2 156/7/2 159/7/2
f 159/7/2 156/7/2 160/7/2
f 161/7/2 162/7/2 165/7/2
f 165/7/2 162/7/2 166/7/2
f 163/7/2 164/7/2 167/7/2
f 167/7/2 164/7/2 168/7/2
f 169/7/2 170/7/2 173/7/2
f 173/7/2 170/7/2 174/7/2
f 171/7/2 172/7/2 175/7/2
f 175/7/2 172/7/2 176/7/2
f 177/7/2 178/7/2 179/7/2
f 179/7/2 178/7/2 180/7/2
f 183/7/2 184/7/2 185/7/2
f 185/7/2 184/7/2 186/7/2
f 185/5/2 186/5/2 187/5/2
f 187/5/2 186/5/2 188/5/2
f 187/7/2 188/7/2 189/7/2
f 189/7/2 188/7/2 190/7/2
f 189/5/2 190/5/2 191/5/2
f 191/5/2 190/5/2 192/5/2
f 181/7/2 182/7/2 193/7/2
f 193/7/2 182/7/2 194/7/2
f 191/7/2 192/7/2 195/7/2
f 195/7/2 192/7/2 196/7/2
f 199/7/2 200/7/2 201/7/2
f 201/7/2 200/7/2 202/7/2
f 201/6/2 202/6/2 203/6/2
f 203/6/2 202/6/2 204/6/2
f 204/6/2 202/6/2 205/6/2
f 205/6/2 202/6/2 206/6/2
f 197/7/2 198/7/2 207/7/2
f 207/7/2 198/7/2 208/7/2
f 205/7/2 206/7/2 209/7/2
f 209/7/2 206/7/2 210/7/2
f 213/7/2 214/7/2 215/7/2
f 215/7/2 214/7/2 216/7/2
f 213/7/2 215/7/2 217/7/2
f 215/6/2 216/6/2 217/6/2
f 217/6/2 216/6/2 218/6/2
f 211/7/2 212/7/2 219/7/2
f 219/7/2 212/7/2 220/7/2
f 213/7/2 217/7/2 221/7/2
f 217/7/2 218/7/2 221/7/2
f 221/7/2 218/7/2 222/7/2
f 223/7/2 224/7/2 227/7/2
f 227/7/2 224/7/2 228/7/2
f 225/7/2 226/7/2 229/7/2
f 229/7/2 226/7/2 230/7/2
f 231/7/2 232/7/2 233/7/2
f 233/7/2 232/7/2 234/7/2
f 237/7/3 236/7/3 235/7/3
f 238/7/3 236/7/3 237/7/3
f 241/7/3 240/7/3 239/7/3
f 242/7/3 240/7/3 241/7/3
f 245/7/3 244/7/3 243/7/3
f 246/7/3 244/7/3 245/7/3
f 251/7/3 248/7/3 247/7/3
f 251/3/3 249/3/3 248/3/3
f 252/7/3 250/7/3 249/7/3
f 252/3/3 249/3/3 251/3/3
f 253/7/3 251/7/3 247/7/3
f 253/7/3 252/7/3 251/7/3
f 254/7/3 250/7/3 252/7/3
f 254/7/3 252/7/3 253/7/3
f 257/7/3 256/7/3 255/7/3
f 258/7/3 256/7/3 257/7/3
f 267/7/3 260/7/3 259/7/3
f 268/3/3 261/3/3 260/3/3
f 268/7/3 260/7/3 267/7/3
f 269/7/3 262/7/3 261/7/3
f 269/3/3 261/3/3 268/3/3
f 270/3/3 263/3/3 262/3/3
f 270/7/3 262/7/3 269/7/3
f 271/7/3 264/7/3 263/7/3
f 271/3/3 263/3/3 270/3/3
f 272/3/3 265/3/3 264/3/3
f 272/7/3 264/7/3 271/7/3
f 273/7/3 266/7/3 265/7/3
f 273/3/3 265/3/3 272/3/3
f 274/7/3 266/7/3 273/7/3
f 277/7/3 276/7/3 275/7/3
f 278/7/3 276/7/3 277/7/3
f 287/7/3 280/7/3 279/7/3
f 288/3/3 281/3/3 280/3/3
f 288/7/3 280/7/3 287/7/3
f 289/7/3 282/7/3 281/7/3
f 289/3/3 281/3/3 288/3/3
f 290/3/3 283/3/3 282/3/3
f 290/7/3 282/7/3 289/7/3
f 291/7/3 284/7/3 283/7/3
f 291/3/3 283/3/3 290/3/3
f 292/3/3 285/3/3 284/3/3
f 292/7/3 284/7/3 291/7/3
f 293/7/3 286/7/3 285/7/3
f 293/3/3 285/3/3 292/3/3
f 294/7/3 286/7/3 293/7/3
f 297/7/3 296/7/3 295/7/3
f 298/7/3 296/7/3 297/7/3
f 301/7/3 300/7/3 299/7/3
f 302/7/3 300/7/3 301/7/3
f 305/7/3 304/7/3 303/7/3
f 306/7/3 304/7/3 305/7/3
f 309/7/3 308/7/3 307/7/3
f 310/7/3 308/7/3 309/7/3
f 313/7/3 312/7/3 311/7/3
f 314/7/3 312/7/3 313/7/3
f 317/7/3 316/7/3 315/7/3
f 318/7/3 316/7/3 317/7/3
f 321/7/3 320/7/3 319/7/3
f 322/7/3 320/7/3 321/7/3
f 325/7/3 324/7/3 323/7/3
f 326/7/3 324/7/3 325/7/3
f 329/7/3 328/7/3 327/7/3
f 330/7/3 328/7/3 329/7/3
f 333/7/3 332/7/3 331/7/3
f 334/7/3 332/7/3 333/7/3
f 337/7/3 336/7/3 335/7/3
f 338/7/3 336/7/3 337/7/3
f 339/7/4 340/7/4 341/7/4
f 341/7/4 340/7/4 342/7/4
f 343/7/4 344/7/4 345/7/4
f 345/7/4 344/7/4 346/7/4
f 347/7/4 348/7/4 349/7/4
f 349/7/4 348/7/4 350/7/4
f 351/7/4 352/7/4 353/7/4
f 353/7/4 352/7/4 354/7/4
f 355/7/4 356/7/4 357/7/4
f 357/7/4 356/7/4 358/7/4
f 359/7/4 360/7/4 361/7/4
f 361/7/4 360/7/4 362/7/4
f 363/7/4 364/7/4 365/7/4
f 365/7/4 364/7/4 366/7/4
f 367/7/4 368/7/4 369/7/4
f 369/7/4 368/7/4 370/7/4
f 371/7/4 372/7/4 373/7/4
f 373/7/4 372/7/4 374/7/4
f 375/7/4 376/7/4 377/7/4
f 377/7/4 376/7/4 378/7/4
f 379/7/4 380/7/4 383/7/4
f 380/2/4 381/2/4 384/2/4
f 383/7/4 380/7/4 384/7/4
f 381/7/4 382/7/4 385/7/4
f 384/2/4 381/2/4 385/2/4
f 385/7/4 382/7/4 386/7/4
f 387/7/4 388/7/4 389/7/4
f 389/7/4 388/7/4 390/7/4
f 391/7/4 392/7/4 395/7/4
f 392/4/4 393/4/4 396/4/4
f 395/7/4 392/7/4 396/7/4
f 396/4/4 393/4/4 397/4/4
f 397/4/4 393/4/4 398/4/4
f 393/7/4 394/7/4 399/7/4
f 398/4/4 393/4/4 399/4/4
f 399/7/4 394/7/4 400/7/4
f 401/7/4 402/7/4 403/7/4
f 403/7/4 402/7/4 404/7/4
f 406/4/4 407/4/4 411/4/4
f 407/7/4 408/7/4 411/7/4
f 408/4/4 409/4/4 412/4/4
f 411/7/4 408/7/4 412/7/4
f 409/7/4 410/7/4 413/7/4
f 412/4/4 409/4/4 413/4/4
f 413/7/4 410/7/4 414/7/4
f 405/7/4 406/7/4 415/7/4
f 411/4/4 412/4/4 416/4/4
f 415/7/4 406/7/4 416/7/4
f 406/4/4 411/4/4 416/4/4
f 413/4/4 414/4/4 416/4/4
f 412/4/4 413/4/4 416/4/4
f 414/7/4 410/7/4 417/7/4
f 416/4/4 414/4/4 417/4/4
f 417/7/4 410/7/4 418/7/4
f 420/6/4 421/6/4 425/6/4
f 421/7/4 422/7/4 425/7/4
f 422/6/4 423/6/4 426/6/4
f 425/7/4 422/7/4 426/7/4
f 423/7/4 424/7/4 427/7/4
f 426/6/4 423/6/4 427/6/4
f 427/7/4 424/7/4 428/7/4
f 419/7/4 420/7/4 429/7/4
f 425/6/4 426/6/4 430/6/4
f 429/7/4 420/7/4 430/7/4
f 420/6/4 425/6/4 430/6/4
f 427/6/4 428/6/4 430/6/4
f 426/6/4 427/6/4 430/6/4
f 428/7/4 424/7/4 431/7/4
f 430/6/4 428/6/4 431/6/4
f 431/7/4 424/7/4 432/7/4
f 433/7/4 434/7/4 435/7/4
f 435/7/4 434/7/4 436/7/4
f 433/7/4 435/7/4 437/7/4
f 435/1/4 436/1/4 438/1/4
f 437/7/4 435/7/4 438/7/4
f 438/1/4 436/1/4 439/1/4
f 439/1/4 436/1/4 440/1/4
f 436/7/4 434/7/4 441/7/4
f 440/1/4 436/1/4 441/1/4
f 441/7/4 434/7/4 442/7/4
f 443/7/4 444/7/4 449/7/4
f 447/7/4 448/7/4 449/7/4
f 446/7/4 447/7/4 449/7/4
f 445/7/4 446/7/4 449/7/4
f 444/7/4 445/7/4 449/7/4
f 449/7/4 448/7/4 450/7/4
f 443/7/4 449/7/4 451/7/4
f 449/6/4 450/6/4 452/6/4
f 451/7/4 449/7/4 452/7/4
f 450/7/4 448/7/4 453/7/4
f 452/6/4 450/6/4 453/6/4
f 453/7/4 448/7/4 454/7/4
f 456/1/4 457/1/4 461/1/4
f 457/7/4 458/7/4 461/7/4
f 458/1/4 459/1/4 462/1/4
f 461/7/4 458/7/4 462/7/4
f 459/7/4 460/7/4 463/7/4
f 462/1/4 459/1/4 463/1/4
f 463/7/4 460/7/4 464/7/4
f 455/7/4 456/7/4 465/7/4
f 461/1/4 462/1/4 465/1/4
f 463/1/4 464/1/4 465/1/4
f 462/1/4 463/1/4 465/1/4
f 456/1/4 461/1/4 465/1/4
f 464/7/4 460/7/4 466/7/4
f 465/1/4 464/1/4 466/1/4
f 455/7/4 465/7/4 467/7/4
f 465/7/4 466/7/4 467/7/4
f 467/7/4 466/7/4 468/7/4
f 468/7/4 466/7/4 469/7/4
f 466/7/4 460/7/4 470/7/4
f 469/7/4 466/7/4 470/7/4
f 455/7/4 467/7/4 471/7/4
f 467/5/4 468/5/4 472/5/4
f 471/7/4 467/7/4 472/7/4
f 468/7/4 469/7/4 473/7/4
f 472/5/4 468/5/4 473/5/4
f 469/5/4 470/5/4 474/5/4
f 473/7/4 469/7/4 474/7/4
f 470/7/4 460/7/4 475/7/4
f 474/5/4 470/5/4 475/5/4
f 475/7/4 460/7/4 476/7/4
f 480/7/5 478/7/5 477/7/5
f 481/7/5 478/7/5 480/7/5
f 484/7/5 480/7/5 479/7/5
f 484/7/5 482/7/5 481/7/5
f 484/7/5 481/7/5 480/7/5
f 485/7/5 482/7/5 484/7/5
f 488/7/5 484/7/5 483/7/5
f 488/7/5 486/7/5 485/7/5
f 488/7/5 485/7/5 484/7/5
f 489/7/5 486/7/5 488/7/5
f 492/7/5 488/7/5 487/7/5
f 492/7/5 490/7/5 489/7/5
f 492/7/5 489/7/5 488/7/5
f 493/7/5 490/7/5 492/7/5
f 495/7/5 492/7/5 491/7/5
f 495/7/5 494/7/5 493/7/5
f 495/7/5 493/7/5 492/7/5
f 496/7/5 494/7/5 495/7/5
f 497/7/5 494/7/5 496/7/5
f 498/7/5 494/7/5 497/7/5
f 499/7/5 497/7/5 496/7/5
f 500/7/5 497/7/5 499/7/5
f 501/7/5 497/7/5 500/7/5
f 502/7/5 497/7/5 501/7/5
f 503/7/5 501/7/5 500/7/5
f 504/7/5 501/7/5 503/7/5
f 505/7/5 501/7/5 504/7/5
f 506/7/5 501/7/5 505/7/5
f 507/7/5 505/7/5 504/7/5
f 508/7/5 505/7/5 507/7/5
f 509/7/5 505/7/5 508/7/5
f 510/7/5 505/7/5 509/7/5
f 511/7/5 509/7/5 508/7/5
f 512/7/5 509/7/5 511/7/5
f 516/7/5 514/7/5 513/7/5
f 517/7/5 514/7/5 516/7/5
f 520/7/5 516/7/5 515/7/5
f 520/7/5 518/7/5 517/7/5
f 520/7/5 517/7/5 516/7/5
f 521/7/5 518/7/5 520/7/5
f 524/7/5 520/7/5 519/7/5
f 524/7/5 522/7/5 521/7/5
f 524/7/5 521/7/5 520/7/5
f 525/7/5 522/7/5 524/7/5
f 528/7/5 524/7/5 523/7/5
f 528/7/5 526/7/5 525/7/5
f 528/7/5 525/7/5 524/7/5
f 529/7/5 526/7/5 528/7/5
f 531/7/5 528/7/5 527/7/5
f 531/7/5 530/7/5 529/7/5
f 531/7/5 529/7/5 528/7/5
f 532/7/5 530/7/5 531/7/5
f 533/7/5 531/7/5 527/7/5
f 534/7/5 530/7/5 532/7/5
f 535/7/5 533/7/5 527/7/5
f 535/7/5 534/7/5 533/7/5
f 536/7/5 534/7/5 535/7/5
f 537/7/5 530/7/5 534/7/5
f 537/7/5 534/7/5 536/7/5
f 538/7/5 530/7/5 537/7/5
f 539/7/5 537/7/5 536/7/5
f 540/7/5 537/7/5 539/7/5
f 541/7/5 537/7/5 540/7/5
f 542/7/5 537/7/5 541/7/5
f 543/7/5 541/7/5 540/7/5
f 544/7/5 541/7/5 543/7/5
f 545/7/5 541/7/5 544/7/5
f 546/7/5 541/7/5 545/7/5
f 547/7/5 545/7/5 544/7/5
f 548/7/5 545/7/5 547/7/5
f 549/7/5 545/7/5 548/7/5
f 550/7/5 545/7/5 549/7/5
f 551/7/5 549/7/5 548/7/5
f 552/7/5 549/7/5 551/7/5
f 553/7/6 554/7/6 556/7/6
f 556/7/6 554/7/6 557/7/6
f 555/7/6 556/7/6 560/7/6
f 557/7/6 558/7/6 560/7/6
f 556/7/6 557/7/6 560/7/6
f 560/7/6 558/7/6 561/7/6
f 559/7/6 560/7/6 564/7/6
f 561/7/6 562/7/6 564/7/6
f 560/7/6 561/7/6 564/7/6
f 564/7/6 562/7/6 565/7/6
f 563/7/6 564/7/6 568/7/6
f 565/7/6 566/7/6 568/7/6
f 564/7/6 565/7/6 568/7/6
f 568/7/6 566/7/6 569/7/6
f 567/7/6 568/7/6 571/7/6
f 569/7/6 570/7/6 571/7/6
f 568/7/6 569/7/6 571/7/6
f 571/7/6 570/7/6 572/7/6
f 567/7/6 571/7/6 573/7/6
f 572/7/6 570/7/6 574/7/6
f 567/7/6 573/7/6 575/7/6
f 573/7/6 574/7/6 575/7/6
f 575/7/6 574/7/6 576/7/6
f 574/7/6 570/7/6 577/7/6
f 576/7/6 574/7/6 577/7/6
f 577/7/6 570/7/6 578/7/6
f 576/7/6 577/7/6 579/7/6
f 579/7/6 577/7/6 580/7/6
f 580/7/6 577/7/6 581/7/6
f 581/7/6 577/7/6 582/7/6
f 580/7/6 581/7/6 583/7/6
f 583/7/6 581/7/6 584/7/6
f 584/7/6 581/7/6 585/7/6
f 585/7/6 581/7/6 586/7/6
f 584/7/6 585/7/6 587/7/6
f 587/7/6 585/7/6 588/7/6
f 588/7/6 585/7/6 589/7/6
f 589/7/6 585/7/6 590/7/6
f 588/7/6 589/7/6 591/7/6
f 591/7/6 589/7/6 592/7/6
f 593/7/6 594/7/6 596/7/6
f 596/7/6 594/7/6 597/7/6
f 595/7/6 596/7/6 600/7/6
f 597/7/6 598/7/6 600/7/6
f 596/7/6 597/7/6 600/7/6
f 600/7/6 598/7/6 601/7/6
f 599/7/6 600/7/6 604/7/6
f 601/7/6 602/7/6 604/7/6
f 600/7/6 601/7/6 604/7/6
f 604/7/6 602/7/6 605/7/6
f 603/7/6 604/7/6 608/7/6
f 605/7/6 606/7/6 608/7/6
f 604/7/6 605/7/6 608/7/6
f 608/7/6 606/7/6 609/7/6
f 607/7/6 608/7/6 611/7/6
f 609/7/6 610/7/6 611/7/6
f 608/7/6 609/7/6 611/7/6
f 611/7/6 610/7/6 612/7/6
f 612/7/6 610/7/6 613/7/6
f 613/7/6 610/7/6 614/7/6
f 614/7/6 610/7/6 615/7/6
f 615/7/6 610/7/6 616/7/6
f 612/7/6 613/7/6 617/7/6
f 613/8/6 614/8/6 618/8/6
f 617/7/6 613/7/6 618/7/6
f 618/8/6 614/8/6 619/8/6
f 619/8/6 614/8/6 620/8/6
f 614/7/6 615/7/6 621/7/6
f 620/8/6 614/8/6 621/8/6
f 621/7/6 615/7/6 622/7/6
f 612/7/6 617/7/6 623/7/6
f 623/7/6 617/7/6 624/7/6
f 619/8/6 620/8/6 625/8/6
f 618/7/6 619/7/6 625/7/6
f 620/7/6 621/7/6 626/7/6
f 625/8/6 620/8/6 626/8/6
f 622/7/6 615/7/6 627/7/6
f 627/7/6 615/7/6 628/7/6
f 624/7/6 617/7/6 629/7/6
f 629/7/6 617/7/6 630/7/6
f 617/8/6 618/8/6 631/8/6
f 630/7/6 617/7/6 631/7/6
f 618/7/6 625/7/6 632/7/6
f 631/8/6 618/8/6 632/8/6
f 625/7/6 626/7/6 632/7/6
f 626/7/6 621/7/6 633/7/6
f 632/7/6 626/7/6 633/7/6
f 621/8/6 622/8/6 633/8/6
f 622/7/6 627/7/6 634/7/6
f 633/8/6 622/8/6 634/8/6
f 634/7/6 627/7/6 635/7/6
f 635/7/6 627/7/6 636/7/6
f 631/7/6 632/7/6 637/7/6
f 630/7/6 631/7/6 637/7/6
f 637/7/6 632/7/6 638/7/6
f 632/8/6 633/8/6 639/8/6
f 638/7/6 632/7/6 639/7/6
f 634/7/6 635/7/6 640/7/6
f 639/8/6 633/8/6 640/8/6
f 633/7/6 634/7/6 640/7/6
f 640/7/6 635/7/6 641/7/6
f 641/7/6 635/7/6 642/7/6
f 638/7/6 639/7/6 643/7/6
f 640/7/6 641/7/6 643/7/6
f 639/7/6 640/7/6 643/7/6
f 643/7/6 641/7/6 644/7/6
