# MagicaVoxel @ Ephtracy

# group
o 

# material
mtllib stovegrillthingidkanymore.mtl
usemtl palette

# normals
vn -1 0 0
vn 1 0 0
vn 0 0 1
vn 0 0 -1
vn 0 -1 0
vn 0 1 0

# texcoords
vt 0.306641 0.5
vt 0.841797 0.5
vt 0.849609 0.5
vt 0.962891 0.5
vt 0.974609 0.5
vt 0.978516 0.5
vt 0.990234 0.5
vt 0.994141 0.5

# verts
v 0.8 2 -0.7
v 0.8 2 -3
v 0.8 3.5 -0.7
v 0.8 3.5 -2.7
v 0.8 3.6 -2.7
v 0.8 3.6 -2.8
v 0.8 3.9 -2.8
v 0.8 3.9 -3
v 1.6 3.2 -0.5
v 1.6 3.2 -0.7
v 1.6 3.3 -0.5
v 1.6 3.3 -0.7
v 2.5 3.2 -0.6
v 2.5 3.2 -0.7
v 2.5 3.3 -0.6
v 2.5 3.3 -0.7
v 1.7 3.2 -0.6
v 1.7 3.2 -0.7
v 1.7 3.3 -0.6
v 1.7 3.3 -0.7
v 2.6 3.2 -0.5
v 2.6 3.2 -0.7
v 2.6 3.3 -0.5
v 2.6 3.3 -0.7
v 3.4 2 -0.7
v 3.4 2 -3
v 3.4 3.5 -0.7
v 3.4 3.5 -2.7
v 3.4 3.6 -2.7
v 3.4 3.6 -2.8
v 3.4 3.9 -2.8
v 3.4 3.9 -3
v 1.6 3.2 -0.5
v 1.6 3.3 -0.5
v 2.6 3.2 -0.5
v 2.6 3.3 -0.5
v 0.8 2 -0.7
v 0.8 3.5 -0.7
v 1.6 2.2 -0.7
v 1.6 3 -0.7
v 1.6 3.2 -0.7
v 1.6 3.3 -0.7
v 1.7 2.3 -0.7
v 1.7 2.9 -0.7
v 1.7 3.2 -0.7
v 1.7 3.3 -0.7
v 2.4 2.3 -0.7
v 2.4 2.9 -0.7
v 2.5 2.2 -0.7
v 2.5 3 -0.7
v 2.5 3.2 -0.7
v 2.5 3.3 -0.7
v 2.6 3.2 -0.7
v 2.6 3.3 -0.7
v 3.4 2 -0.7
v 3.4 3.5 -0.7
v 0.8 3.5 -2.7
v 0.8 3.6 -2.7
v 3.4 3.5 -2.7
v 3.4 3.6 -2.7
v 0.8 3.6 -2.8
v 0.8 3.9 -2.8
v 0.9 3.8 -2.8
v 0.9 3.9 -2.8
v 1 3.8 -2.8
v 1 3.9 -2.8
v 1.1 3.8 -2.8
v 1.1 3.9 -2.8
v 1.2 3.8 -2.8
v 1.2 3.9 -2.8
v 1.3 3.8 -2.8
v 1.3 3.9 -2.8
v 1.4 3.8 -2.8
v 1.4 3.9 -2.8
v 1.5 3.8 -2.8
v 1.5 3.9 -2.8
v 1.6 3.8 -2.8
v 1.6 3.9 -2.8
v 2.5 3.8 -2.8
v 2.5 3.9 -2.8
v 2.7 3.8 -2.8
v 2.7 3.9 -2.8
v 3.4 3.6 -2.8
v 3.4 3.9 -2.8
v 1.7 3.2 -0.6
v 1.7 3.3 -0.6
v 2.5 3.2 -0.6
v 2.5 3.3 -0.6
v 0.8 2 -3
v 0.8 3.9 -3
v 3.4 2 -3
v 3.4 3.9 -3
v 0.8 2 -0.7
v 3.4 2 -0.7
v 0.8 2 -3
v 3.4 2 -3
v 1.6 3.2 -0.5
v 2.6 3.2 -0.5
v 1.7 3.2 -0.6
v 2.5 3.2 -0.6
v 1.6 3.2 -0.7
v 1.7 3.2 -0.7
v 2.5 3.2 -0.7
v 2.6 3.2 -0.7
v 1.6 3.3 -0.5
v 2.6 3.3 -0.5
v 1.7 3.3 -0.6
v 2.5 3.3 -0.6
v 1.6 3.3 -0.7
v 1.7 3.3 -0.7
v 2.5 3.3 -0.7
v 2.6 3.3 -0.7
v 0.8 3.5 -0.7
v 3.4 3.5 -0.7
v 1 3.5 -1
v 3.2 3.5 -1
v 1.1 3.5 -1.1
v 2 3.5 -1.1
v 2.2 3.5 -1.1
v 3.1 3.5 -1.1
v 1.1 3.5 -1.7
v 2 3.5 -1.7
v 2.2 3.5 -1.7
v 3.1 3.5 -1.7
v 1.1 3.5 -1.9
v 2 3.5 -1.9
v 2.2 3.5 -1.9
v 3.1 3.5 -1.9
v 1.1 3.5 -2.5
v 2 3.5 -2.5
v 2.2 3.5 -2.5
v 3.1 3.5 -2.5
v 1 3.5 -2.6
v 3.2 3.5 -2.6
v 0.8 3.5 -2.7
v 3.4 3.5 -2.7
v 0.8 3.6 -2.7
v 3.4 3.6 -2.7
v 0.8 3.6 -2.8
v 3.4 3.6 -2.8
v 0.8 3.9 -2.8
v 0.9 3.9 -2.8
v 1 3.9 -2.8
v 1.1 3.9 -2.8
v 1.2 3.9 -2.8
v 1.3 3.9 -2.8
v 1.4 3.9 -2.8
v 1.5 3.9 -2.8
v 1.6 3.9 -2.8
v 2.5 3.9 -2.8
v 2.7 3.9 -2.8
v 3.4 3.9 -2.8
v 0.9 3.9 -2.9
v 1 3.9 -2.9
v 1.1 3.9 -2.9
v 1.2 3.9 -2.9
v 1.3 3.9 -2.9
v 1.4 3.9 -2.9
v 1.5 3.9 -2.9
v 1.6 3.9 -2.9
v 2.5 3.9 -2.9
v 2.7 3.9 -2.9
v 0.8 3.9 -3
v 3.4 3.9 -3

# faces
f 3/4/1 2/4/1 1/4/1
f 4/4/1 2/4/1 3/4/1
f 5/4/1 2/4/1 4/4/1
f 6/4/1 2/4/1 5/4/1
f 7/4/1 2/4/1 6/4/1
f 8/4/1 2/4/1 7/4/1
f 11/6/1 10/6/1 9/6/1
f 12/6/1 10/6/1 11/6/1
f 15/6/1 14/6/1 13/6/1
f 16/6/1 14/6/1 15/6/1
f 17/6/2 18/6/2 19/6/2
f 19/6/2 18/6/2 20/6/2
f 21/6/2 22/6/2 23/6/2
f 23/6/2 22/6/2 24/6/2
f 25/4/2 26/4/2 27/4/2
f 27/4/2 26/4/2 28/4/2
f 28/4/2 26/4/2 29/4/2
f 29/4/2 26/4/2 30/4/2
f 30/4/2 26/4/2 31/4/2
f 31/4/2 26/4/2 32/4/2
f 35/6/3 34/6/3 33/6/3
f 36/6/3 34/6/3 35/6/3
f 39/4/3 38/4/3 37/4/3
f 40/4/3 38/4/3 39/4/3
f 41/4/3 38/4/3 40/4/3
f 42/4/3 38/4/3 41/4/3
f 43/8/3 40/8/3 39/8/3
f 44/8/3 40/8/3 43/8/3
f 45/4/3 41/4/3 40/4/3
f 46/4/3 38/4/3 42/4/3
f 47/8/3 43/8/3 39/8/3
f 47/5/3 44/5/3 43/5/3
f 48/8/3 40/8/3 44/8/3
f 48/5/3 44/5/3 47/5/3
f 49/4/3 39/4/3 37/4/3
f 49/8/3 47/8/3 39/8/3
f 49/8/3 48/8/3 47/8/3
f 50/8/3 40/8/3 48/8/3
f 50/8/3 48/8/3 49/8/3
f 50/4/3 45/4/3 40/4/3
f 50/4/3 46/4/3 45/4/3
f 51/4/3 46/4/3 50/4/3
f 52/4/3 38/4/3 46/4/3
f 52/4/3 46/4/3 51/4/3
f 53/4/3 51/4/3 50/4/3
f 53/4/3 50/4/3 49/4/3
f 54/4/3 38/4/3 52/4/3
f 55/4/3 49/4/3 37/4/3
f 55/4/3 54/4/3 53/4/3
f 55/4/3 53/4/3 49/4/3
f 56/4/3 38/4/3 54/4/3
f 56/4/3 54/4/3 55/4/3
f 59/4/3 58/4/3 57/4/3
f 60/4/3 58/4/3 59/4/3
f 63/4/3 62/4/3 61/4/3
f 64/4/3 62/4/3 63/4/3
f 65/4/3 63/4/3 61/4/3
f 65/2/3 64/2/3 63/2/3
f 66/2/3 64/2/3 65/2/3
f 67/4/3 65/4/3 61/4/3
f 67/4/3 66/4/3 65/4/3
f 68/4/3 66/4/3 67/4/3
f 69/4/3 67/4/3 61/4/3
f 69/2/3 68/2/3 67/2/3
f 70/2/3 68/2/3 69/2/3
f 71/4/3 69/4/3 61/4/3
f 71/4/3 70/4/3 69/4/3
f 72/4/3 70/4/3 71/4/3
f 73/4/3 71/4/3 61/4/3
f 73/2/3 72/2/3 71/2/3
f 74/2/3 72/2/3 73/2/3
f 75/4/3 73/4/3 61/4/3
f 75/4/3 74/4/3 73/4/3
f 76/4/3 74/4/3 75/4/3
f 77/4/3 75/4/3 61/4/3
f 77/2/3 76/2/3 75/2/3
f 78/2/3 76/2/3 77/2/3
f 79/4/3 77/4/3 61/4/3
f 79/4/3 78/4/3 77/4/3
f 80/4/3 78/4/3 79/4/3
f 81/4/3 79/4/3 61/4/3
f 81/3/3 80/3/3 79/3/3
f 82/3/3 80/3/3 81/3/3
f 83/4/3 81/4/3 61/4/3
f 83/4/3 82/4/3 81/4/3
f 84/4/3 82/4/3 83/4/3
f 85/6/4 86/6/4 87/6/4
f 87/6/4 86/6/4 88/6/4
f 89/4/4 90/4/4 91/4/4
f 91/4/4 90/4/4 92/4/4
f 95/4/5 94/4/5 93/4/5
f 96/4/5 94/4/5 95/4/5
f 99/6/5 98/6/5 97/6/5
f 100/6/5 98/6/5 99/6/5
f 101/6/5 99/6/5 97/6/5
f 102/6/5 99/6/5 101/6/5
f 103/6/5 98/6/5 100/6/5
f 104/6/5 98/6/5 103/6/5
f 105/6/6 106/6/6 107/6/6
f 107/6/6 106/6/6 108/6/6
f 105/6/6 107/6/6 109/6/6
f 109/6/6 107/6/6 110/6/6
f 108/6/6 106/6/6 111/6/6
f 111/6/6 106/6/6 112/6/6
f 113/4/6 114/4/6 115/4/6
f 115/4/6 114/4/6 116/4/6
f 115/7/6 116/7/6 117/7/6
f 117/7/6 116/7/6 118/7/6
f 118/7/6 116/7/6 119/7/6
f 119/7/6 116/7/6 120/7/6
f 115/7/6 117/7/6 121/7/6
f 117/8/6 118/8/6 121/8/6
f 118/7/6 119/7/6 122/7/6
f 121/8/6 118/8/6 122/8/6
f 119/8/6 120/8/6 123/8/6
f 122/7/6 119/7/6 123/7/6
f 120/7/6 116/7/6 124/7/6
f 123/8/6 120/8/6 124/8/6
f 122/7/6 123/7/6 125/7/6
f 121/7/6 122/7/6 125/7/6
f 123/7/6 124/7/6 125/7/6
f 115/7/6 121/7/6 125/7/6
f 125/7/6 124/7/6 126/7/6
f 126/7/6 124/7/6 127/7/6
f 124/7/6 116/7/6 128/7/6
f 127/7/6 124/7/6 128/7/6
f 115/7/6 125/7/6 129/7/6
f 125/8/6 126/8/6 129/8/6
f 126/7/6 127/7/6 130/7/6
f 129/8/6 126/8/6 130/8/6
f 127/8/6 128/8/6 131/8/6
f 130/7/6 127/7/6 131/7/6
f 128/7/6 116/7/6 132/7/6
f 131/8/6 128/8/6 132/8/6
f 113/4/6 115/4/6 133/4/6
f 115/7/6 129/7/6 133/7/6
f 131/7/6 132/7/6 133/7/6
f 129/7/6 130/7/6 133/7/6
f 130/7/6 131/7/6 133/7/6
f 132/7/6 116/7/6 134/7/6
f 133/7/6 132/7/6 134/7/6
f 116/4/6 114/4/6 134/4/6
f 113/4/6 133/4/6 135/4/6
f 133/4/6 134/4/6 135/4/6
f 134/4/6 114/4/6 136/4/6
f 135/4/6 134/4/6 136/4/6
f 137/4/6 138/4/6 139/4/6
f 139/4/6 138/4/6 140/4/6
f 141/4/6 142/4/6 153/4/6
f 142/2/6 143/2/6 153/2/6
f 143/4/6 144/4/6 154/4/6
f 153/2/6 143/2/6 154/2/6
f 144/2/6 145/2/6 155/2/6
f 154/4/6 144/4/6 155/4/6
f 145/4/6 146/4/6 156/4/6
f 155/2/6 145/2/6 156/2/6
f 146/2/6 147/2/6 157/2/6
f 156/4/6 146/4/6 157/4/6
f 147/4/6 148/4/6 158/4/6
f 157/2/6 147/2/6 158/2/6
f 148/2/6 149/2/6 159/2/6
f 158/4/6 148/4/6 159/4/6
f 149/4/6 150/4/6 160/4/6
f 159/2/6 149/2/6 160/2/6
f 150/3/6 151/3/6 161/3/6
f 160/4/6 150/4/6 161/4/6
f 151/4/6 152/4/6 162/4/6
f 161/3/6 151/3/6 162/3/6
f 160/4/6 161/4/6 163/4/6
f 159/4/6 160/4/6 163/4/6
f 161/4/6 162/4/6 163/4/6
f 158/4/6 159/4/6 163/4/6
f 157/4/6 158/4/6 163/4/6
f 156/4/6 157/4/6 163/4/6
f 155/4/6 156/4/6 163/4/6
f 154/4/6 155/4/6 163/4/6
f 153/4/6 154/4/6 163/4/6
f 141/4/6 153/4/6 163/4/6
f 162/4/6 152/4/6 164/4/6
f 163/4/6 162/4/6 164/4/6
