# MagicaVoxel @ Ephtracy

# group
o 

# material
mtllib TV.mtl
usemtl palette

# normals
vn -1 0 0
vn 1 0 0
vn 0 0 1
vn 0 0 -1
vn 0 -1 0
vn 0 1 0

# texcoords
vt 0.958984 0.5
vt 0.962891 0.5
vt 0.978516 0.5
vt 0.994141 0.5

# verts
v 0.5 2 -1.4
v 0.5 2 -1.6
v 0.5 2.2 -1.5
v 0.5 2.2 -1.6
v 0.5 2.4 -1.5
v 0.5 2.4 -1.6
v 0.5 2.9 -1.5
v 0.5 2.9 -1.6
v 0.5 3.1 -1.5
v 0.5 3.1 -1.6
v 0.5 3.3 -1.5
v 0.5 3.3 -1.6
v 0.5 3.5 -1.4
v 0.5 3.5 -1.5
v 0.5 3.5 -1.6
v 0.7 2 -1.3
v 0.7 2 -1.4
v 0.7 3.5 -1.3
v 0.7 3.5 -1.4
v 3.4 2 -1.5
v 3.4 2 -1.6
v 3.4 2.1 -1.5
v 3.4 2.1 -1.6
v 3.4 2.3 -1.5
v 3.4 2.3 -1.6
v 3.4 2.9 -1.5
v 3.4 2.9 -1.6
v 3.4 3.1 -1.5
v 3.4 3.1 -1.6
v 3.4 3.3 -1.5
v 3.4 3.3 -1.6
v 3.4 3.5 -1.5
v 3.4 3.5 -1.6
v 0.7 2 -1.5
v 0.7 2 -1.6
v 0.7 2.2 -1.5
v 0.7 2.2 -1.6
v 0.7 2.4 -1.5
v 0.7 2.4 -1.6
v 0.7 2.9 -1.5
v 0.7 2.9 -1.6
v 0.7 3.1 -1.5
v 0.7 3.1 -1.6
v 0.7 3.3 -1.5
v 0.7 3.3 -1.6
v 0.7 3.5 -1.5
v 0.7 3.5 -1.6
v 3.4 2 -1.3
v 3.4 2 -1.4
v 3.4 3.5 -1.3
v 3.4 3.5 -1.4
v 3.6 2 -1.4
v 3.6 2 -1.6
v 3.6 2.1 -1.5
v 3.6 2.1 -1.6
v 3.6 2.3 -1.5
v 3.6 2.3 -1.6
v 3.6 2.9 -1.5
v 3.6 2.9 -1.6
v 3.6 3.1 -1.5
v 3.6 3.1 -1.6
v 3.6 3.3 -1.5
v 3.6 3.3 -1.6
v 3.6 3.5 -1.4
v 3.6 3.5 -1.5
v 3.6 3.5 -1.6
v 0.7 2 -1.3
v 0.7 3.5 -1.3
v 3.4 2 -1.3
v 3.4 3.5 -1.3
v 0.5 2 -1.4
v 0.5 3.5 -1.4
v 0.7 2 -1.4
v 0.7 3.5 -1.4
v 3.4 2 -1.4
v 3.4 3.5 -1.4
v 3.6 2 -1.4
v 3.6 3.5 -1.4
v 0.7 2 -1.5
v 0.7 2.2 -1.5
v 0.7 2.4 -1.5
v 0.7 2.9 -1.5
v 0.7 3.1 -1.5
v 0.7 3.3 -1.5
v 0.7 3.5 -1.5
v 0.8 2.1 -1.5
v 0.8 3.4 -1.5
v 1.2 2.6 -1.5
v 1.2 2.7 -1.5
v 1.3 2.6 -1.5
v 1.3 2.7 -1.5
v 1.6 2.3 -1.5
v 1.6 2.4 -1.5
v 1.6 2.9 -1.5
v 1.6 3 -1.5
v 1.7 2.3 -1.5
v 1.7 2.4 -1.5
v 1.7 2.9 -1.5
v 1.7 3 -1.5
v 1.8 2.6 -1.5
v 1.8 2.7 -1.5
v 1.9 2.6 -1.5
v 1.9 2.7 -1.5
v 2.1 2.9 -1.5
v 2.1 3 -1.5
v 2.2 2.9 -1.5
v 2.2 3 -1.5
v 2.3 2.7 -1.5
v 2.3 2.8 -1.5
v 2.4 2.7 -1.5
v 2.4 2.8 -1.5
v 2.7 2.5 -1.5
v 2.7 2.6 -1.5
v 2.8 2.5 -1.5
v 2.8 2.6 -1.5
v 3 3 -1.5
v 3 3.1 -1.5
v 3.1 3 -1.5
v 3.1 3.1 -1.5
v 3.3 2.1 -1.5
v 3.3 3.4 -1.5
v 3.4 2 -1.5
v 3.4 2.1 -1.5
v 3.4 2.3 -1.5
v 3.4 2.9 -1.5
v 3.4 3.1 -1.5
v 3.4 3.3 -1.5
v 3.4 3.5 -1.5
v 0.5 2 -1.6
v 0.5 2.2 -1.6
v 0.5 2.4 -1.6
v 0.5 2.9 -1.6
v 0.5 3.1 -1.6
v 0.5 3.3 -1.6
v 0.5 3.5 -1.6
v 0.7 2 -1.6
v 0.7 2.2 -1.6
v 0.7 2.4 -1.6
v 0.7 2.9 -1.6
v 0.7 3.1 -1.6
v 0.7 3.3 -1.6
v 0.7 3.5 -1.6
v 3.4 2 -1.6
v 3.4 2.1 -1.6
v 3.4 2.3 -1.6
v 3.4 2.9 -1.6
v 3.4 3.1 -1.6
v 3.4 3.3 -1.6
v 3.4 3.5 -1.6
v 3.6 2 -1.6
v 3.6 2.1 -1.6
v 3.6 2.3 -1.6
v 3.6 2.9 -1.6
v 3.6 3.1 -1.6
v 3.6 3.3 -1.6
v 3.6 3.5 -1.6
v 0.7 2 -1.3
v 3.4 2 -1.3
v 0.5 2 -1.4
v 0.7 2 -1.4
v 3.4 2 -1.4
v 3.6 2 -1.4
v 0.7 2 -1.5
v 3.4 2 -1.5
v 0.5 2 -1.6
v 0.7 2 -1.6
v 3.4 2 -1.6
v 3.6 2 -1.6
v 0.7 3.5 -1.3
v 3.4 3.5 -1.3
v 0.5 3.5 -1.4
v 0.7 3.5 -1.4
v 3.4 3.5 -1.4
v 3.6 3.5 -1.4
v 0.5 3.5 -1.5
v 0.7 3.5 -1.5
v 3.4 3.5 -1.5
v 3.6 3.5 -1.5
v 0.5 3.5 -1.6
v 0.7 3.5 -1.6
v 3.4 3.5 -1.6
v 3.6 3.5 -1.6

# faces
f 3/4/1 2/4/1 1/4/1
f 4/4/1 2/4/1 3/4/1
f 5/4/1 3/4/1 1/4/1
f 5/3/1 4/3/1 3/3/1
f 6/3/1 4/3/1 5/3/1
f 7/4/1 5/4/1 1/4/1
f 7/4/1 6/4/1 5/4/1
f 8/4/1 6/4/1 7/4/1
f 9/4/1 7/4/1 1/4/1
f 9/3/1 8/3/1 7/3/1
f 10/3/1 8/3/1 9/3/1
f 11/4/1 9/4/1 1/4/1
f 11/4/1 10/4/1 9/4/1
f 12/4/1 10/4/1 11/4/1
f 13/4/1 11/4/1 1/4/1
f 14/3/1 12/3/1 11/3/1
f 14/4/1 11/4/1 13/4/1
f 15/3/1 12/3/1 14/3/1
f 18/4/1 17/4/1 16/4/1
f 19/4/1 17/4/1 18/4/1
f 22/4/1 21/4/1 20/4/1
f 23/4/1 21/4/1 22/4/1
f 24/3/1 23/3/1 22/3/1
f 25/3/1 23/3/1 24/3/1
f 26/4/1 25/4/1 24/4/1
f 27/4/1 25/4/1 26/4/1
f 28/3/1 27/3/1 26/3/1
f 29/3/1 27/3/1 28/3/1
f 30/4/1 29/4/1 28/4/1
f 31/4/1 29/4/1 30/4/1
f 32/3/1 31/3/1 30/3/1
f 33/3/1 31/3/1 32/3/1
f 34/4/2 35/4/2 36/4/2
f 36/4/2 35/4/2 37/4/2
f 36/3/2 37/3/2 38/3/2
f 38/3/2 37/3/2 39/3/2
f 38/4/2 39/4/2 40/4/2
f 40/4/2 39/4/2 41/4/2
f 40/3/2 41/3/2 42/3/2
f 42/3/2 41/3/2 43/3/2
f 42/4/2 43/4/2 44/4/2
f 44/4/2 43/4/2 45/4/2
f 44/3/2 45/3/2 46/3/2
f 46/3/2 45/3/2 47/3/2
f 48/4/2 49/4/2 50/4/2
f 50/4/2 49/4/2 51/4/2
f 52/4/2 53/4/2 54/4/2
f 54/4/2 53/4/2 55/4/2
f 52/4/2 54/4/2 56/4/2
f 54/3/2 55/3/2 56/3/2
f 56/3/2 55/3/2 57/3/2
f 52/4/2 56/4/2 58/4/2
f 56/4/2 57/4/2 58/4/2
f 58/4/2 57/4/2 59/4/2
f 52/4/2 58/4/2 60/4/2
f 58/3/2 59/3/2 60/3/2
f 60/3/2 59/3/2 61/3/2
f 52/4/2 60/4/2 62/4/2
f 60/4/2 61/4/2 62/4/2
f 62/4/2 61/4/2 63/4/2
f 52/4/2 62/4/2 64/4/2
f 62/3/2 63/3/2 65/3/2
f 64/4/2 62/4/2 65/4/2
f 65/3/2 63/3/2 66/3/2
f 69/4/3 68/4/3 67/4/3
f 70/4/3 68/4/3 69/4/3
f 73/4/3 72/4/3 71/4/3
f 74/4/3 72/4/3 73/4/3
f 77/4/3 76/4/3 75/4/3
f 78/4/3 76/4/3 77/4/3
f 79/4/4 80/4/4 86/4/4
f 84/4/4 85/4/4 86/4/4
f 83/4/4 84/4/4 86/4/4
f 82/4/4 83/4/4 86/4/4
f 81/4/4 82/4/4 86/4/4
f 80/4/4 81/4/4 86/4/4
f 86/4/4 85/4/4 87/4/4
f 86/2/4 87/2/4 88/2/4
f 88/2/4 87/2/4 89/2/4
f 86/2/4 88/2/4 90/2/4
f 88/1/4 89/1/4 90/1/4
f 89/2/4 87/2/4 91/2/4
f 90/1/4 89/1/4 91/1/4
f 86/2/4 90/2/4 92/2/4
f 90/2/4 91/2/4 92/2/4
f 92/2/4 91/2/4 93/2/4
f 91/2/4 87/2/4 94/2/4
f 93/2/4 91/2/4 94/2/4
f 94/2/4 87/2/4 95/2/4
f 92/1/4 93/1/4 96/1/4
f 86/2/4 92/2/4 96/2/4
f 93/2/4 94/2/4 97/2/4
f 96/1/4 93/1/4 97/1/4
f 94/1/4 95/1/4 98/1/4
f 97/2/4 94/2/4 98/2/4
f 95/2/4 87/2/4 99/2/4
f 98/1/4 95/1/4 99/1/4
f 97/2/4 98/2/4 100/2/4
f 96/2/4 97/2/4 100/2/4
f 98/2/4 99/2/4 100/2/4
f 100/2/4 99/2/4 101/2/4
f 96/2/4 100/2/4 102/2/4
f 100/1/4 101/1/4 102/1/4
f 101/2/4 99/2/4 103/2/4
f 102/1/4 101/1/4 103/1/4
f 102/2/4 103/2/4 104/2/4
f 103/2/4 99/2/4 104/2/4
f 99/2/4 87/2/4 105/2/4
f 104/2/4 99/2/4 105/2/4
f 102/2/4 104/2/4 106/2/4
f 104/1/4 105/1/4 106/1/4
f 105/2/4 87/2/4 107/2/4
f 106/1/4 105/1/4 107/1/4
f 102/2/4 106/2/4 108/2/4
f 106/2/4 107/2/4 108/2/4
f 108/2/4 107/2/4 109/2/4
f 102/2/4 108/2/4 110/2/4
f 108/1/4 109/1/4 110/1/4
f 109/2/4 107/2/4 111/2/4
f 110/1/4 109/1/4 111/1/4
f 96/2/4 102/2/4 112/2/4
f 102/2/4 110/2/4 112/2/4
f 110/2/4 111/2/4 112/2/4
f 112/2/4 111/2/4 113/2/4
f 96/2/4 112/2/4 114/2/4
f 112/1/4 113/1/4 114/1/4
f 113/2/4 111/2/4 115/2/4
f 114/1/4 113/1/4 115/1/4
f 107/2/4 87/2/4 116/2/4
f 115/2/4 111/2/4 116/2/4
f 114/2/4 115/2/4 116/2/4
f 111/2/4 107/2/4 116/2/4
f 116/2/4 87/2/4 117/2/4
f 114/2/4 116/2/4 118/2/4
f 116/1/4 117/1/4 118/1/4
f 117/2/4 87/2/4 119/2/4
f 118/1/4 117/1/4 119/1/4
f 79/4/4 86/4/4 120/4/4
f 96/2/4 114/2/4 120/2/4
f 118/2/4 119/2/4 120/2/4
f 114/2/4 118/2/4 120/2/4
f 86/2/4 96/2/4 120/2/4
f 119/2/4 87/2/4 121/2/4
f 120/2/4 119/2/4 121/2/4
f 87/4/4 85/4/4 121/4/4
f 79/4/4 120/4/4 122/4/4
f 120/4/4 121/4/4 122/4/4
f 122/4/4 121/4/4 123/4/4
f 123/4/4 121/4/4 124/4/4
f 124/4/4 121/4/4 125/4/4
f 125/4/4 121/4/4 126/4/4
f 126/4/4 121/4/4 127/4/4
f 121/4/4 85/4/4 128/4/4
f 127/4/4 121/4/4 128/4/4
f 129/4/4 130/4/4 136/4/4
f 130/3/4 131/3/4 137/3/4
f 136/4/4 130/4/4 137/4/4
f 131/4/4 132/4/4 138/4/4
f 137/3/4 131/3/4 138/3/4
f 132/3/4 133/3/4 139/3/4
f 138/4/4 132/4/4 139/4/4
f 133/4/4 134/4/4 140/4/4
f 139/3/4 133/3/4 140/3/4
f 134/3/4 135/3/4 141/3/4
f 140/4/4 134/4/4 141/4/4
f 141/3/4 135/3/4 142/3/4
f 143/4/4 144/4/4 150/4/4
f 144/3/4 145/3/4 151/3/4
f 150/4/4 144/4/4 151/4/4
f 145/4/4 146/4/4 152/4/4
f 151/3/4 145/3/4 152/3/4
f 146/3/4 147/3/4 153/3/4
f 152/4/4 146/4/4 153/4/4
f 147/4/4 148/4/4 154/4/4
f 153/3/4 147/3/4 154/3/4
f 148/3/4 149/3/4 155/3/4
f 154/4/4 148/4/4 155/4/4
f 155/3/4 149/3/4 156/3/4
f 160/4/5 158/4/5 157/4/5
f 161/4/5 158/4/5 160/4/5
f 163/4/5 160/4/5 159/4/5
f 163/4/5 162/4/5 161/4/5
f 163/4/5 161/4/5 160/4/5
f 164/4/5 162/4/5 163/4/5
f 165/4/5 163/4/5 159/4/5
f 166/4/5 163/4/5 165/4/5
f 167/4/5 162/4/5 164/4/5
f 168/4/5 162/4/5 167/4/5
f 169/4/6 170/4/6 172/4/6
f 172/4/6 170/4/6 173/4/6
f 171/4/6 172/4/6 175/4/6
f 173/4/6 174/4/6 175/4/6
f 172/4/6 173/4/6 175/4/6
f 175/4/6 174/4/6 176/4/6
f 176/4/6 174/4/6 177/4/6
f 177/4/6 174/4/6 178/4/6
f 175/3/6 176/3/6 179/3/6
f 179/3/6 176/3/6 180/3/6
f 177/3/6 178/3/6 181/3/6
f 181/3/6 178/3/6 182/3/6
